<?xml version="1.0" standalone="no"?><!DOCTYPE svg PUBLIC "-//W3C//DTD SVG 1.1//EN" "http://www.w3.org/Graphics/SVG/1.1/DTD/svg11.dtd"><svg t="1564586868355" class="icon" viewBox="0 0 1024 1024" version="1.1" xmlns="http://www.w3.org/2000/svg" p-id="3695" xmlns:xlink="http://www.w3.org/1999/xlink" width="200" height="200"><defs><style type="text/css"></style></defs><path d="M881.921097 191.942567 360.226295 191.942567c-30.42801 0-58.802244 14.065344-77.812203 38.58069L64.290235 511.745197l218.102367 281.22194c19.031449 24.51637 47.38317 38.58069 77.833693 38.58069l521.694803 0c42.73429 0 77.509305-37.644365 77.509305-83.921341L959.430402 275.875165C959.430402 229.597165 924.655388 191.942567 881.921097 191.942567zM892.994294 747.626485c0 8.343015-5.060249 15.392572-11.073196 15.392572L360.226295 763.019057c-10.143011 0-19.614733-4.684696-25.952068-12.860912L149.367913 511.745197l184.906314-238.413971c6.357801-8.176217 15.809057-12.859889 25.952068-12.859889l521.694803 0c6.011924 0 11.073196 7.049556 11.073196 15.403828L892.994294 747.626485z" p-id="3696"></path><path d="M755.925499 339.03874c-12.975523-13.384845-33.996279-13.384845-46.972824 0L588.493162 463.292672 468.033649 339.03874c-12.975523-13.384845-33.997302-13.384845-46.972824 0-12.975523 13.373589-12.975523 35.078936 0 48.452525l120.459512 124.253932L421.061848 635.999129c-12.975523 13.373589-12.975523 35.078936 0 48.452525 6.487761 6.692423 14.987343 10.038634 23.485901 10.038634 8.499581 0 16.998139-3.346211 23.485901-10.038634l120.459512-124.253932L708.952674 684.451654c6.487761 6.692423 14.987343 10.038634 23.485901 10.038634 8.499581 0 16.998139-3.346211 23.485901-10.038634 12.975523-13.373589 12.975523-35.078936 0-48.452525L635.465986 511.745197l120.459512-124.253932C768.901021 374.117676 768.901021 352.412328 755.925499 339.03874z" p-id="3697"></path></svg>