<?xml version="1.0" standalone="no"?><!DOCTYPE svg PUBLIC "-//W3C//DTD SVG 1.1//EN" "http://www.w3.org/Graphics/SVG/1.1/DTD/svg11.dtd"><svg t="1573721453167" class="icon" viewBox="0 0 1024 1024" version="1.1" xmlns="http://www.w3.org/2000/svg" p-id="4978" xmlns:xlink="http://www.w3.org/1999/xlink" width="200" height="200"><defs><style type="text/css"></style></defs><path d="M839.302732 806.814266L803.958827 706.929318a35.343905 35.343905 0 0 1 0-12.805762v-281.726777a291.971387 291.971387 0 1 0-583.942774 0v281.726777a35.343905 35.343905 0 0 1 0 12.805762l-33.294983 99.884948z m-409.784403 81.956881a87.591416 87.591416 0 0 0 160.840378 0zM449.495319 43.590816a66.589965 66.589965 0 0 1 124.984243 0 375.464959 375.464959 0 0 1 311.436146 368.805963v275.06778l51.22305 147.522385a40.97844 40.97844 0 0 1-38.929518 53.784203h-220.771347a169.036066 169.036066 0 0 1-330.900906 0H127.814562A40.97844 40.97844 0 0 1 86.836122 834.986944l51.22305-147.522385V412.396779A375.464959 375.464959 0 0 1 449.495319 43.590816z" fill="#687390" p-id="4979"></path></svg>