<?xml version="1.0" standalone="no"?><!DOCTYPE svg PUBLIC "-//W3C//DTD SVG 1.1//EN" "http://www.w3.org/Graphics/SVG/1.1/DTD/svg11.dtd"><svg t="1573721457167" class="icon" viewBox="0 0 1024 1024" version="1.1" xmlns="http://www.w3.org/2000/svg" p-id="5096" xmlns:xlink="http://www.w3.org/1999/xlink" width="200" height="200"><defs><style type="text/css"></style></defs><path d="M829.924891 806.410879L794.598658 706.575871a35.326234 35.326234 0 0 1 0-12.79936v-281.585921a291.825409 291.825409 0 1 0-583.650818 0v281.585921a35.326234 35.326234 0 0 1 0 12.79936l-33.278336 99.835008z m-409.579521 81.915905a87.547623 87.547623 0 0 0 160.759962 0zM440.312372 43.569022a66.556672 66.556672 0 0 1 124.921754 0 375.277236 375.277236 0 0 1 311.280436 368.621568v274.930254l51.19744 147.448628a40.957952 40.957952 0 0 1-38.910054 53.757312h-220.660967a168.951552 168.951552 0 0 1-330.735464 0H118.792448A40.957952 40.957952 0 0 1 77.834496 834.569472l51.19744-147.448628V412.19059A375.277236 375.277236 0 0 1 440.312372 43.569022z" fill="#687390" p-id="5097"></path><path d="M768.999938 281.637118m-179.191041 0a179.19104 179.19104 0 1 0 358.382081 0 179.19104 179.19104 0 1 0-358.382081 0Z" fill="#FC7C6B" p-id="5098"></path></svg>