<?xml version="1.0" encoding="UTF-8"?>
<svg width="20px" height="18px" viewBox="0 0 20 18" version="1.1" xmlns="http://www.w3.org/2000/svg" xmlns:xlink="http://www.w3.org/1999/xlink">
    <!-- Generator: Sketch 55.2 (78181) - https://sketchapp.com -->
    <title>calendar</title>
    <desc>Created with Sketch.</desc>
    <g id="20190808" stroke="none" stroke-width="1" fill="none" fill-rule="evenodd">
        <g id="15填写提前还款信息" transform="translate(-336.000000, -389.000000)" fill="#CCCCCC">
            <g id="calendar-copy" transform="translate(336.000000, 389.000000)">
                <path d="M18.3333333,18 L1.66666667,18 C0.746192084,18 0,17.3284271 0,16.5 L0,3 C0,2.17157288 0.746192084,1.5 1.66666667,1.5 L3.33333333,1.5 L3.33333333,3 L1.66666667,3 L1.66666667,16.5 L18.3333333,16.5 L18.3333333,3 L16.6666667,3 L16.6666667,1.5 L18.3333333,1.5 C19.2538079,1.5 20,2.17157288 20,3 L20,16.5 C20,17.3284271 19.2538079,18 18.3333333,18 L18.3333333,18 Z M14.1666667,12.75 L15.8333333,12.75 C16.2935706,12.75 16.6666667,13.0857864 16.6666667,13.5 C16.6666667,13.9142136 16.2935706,14.25 15.8333333,14.25 L14.1666667,14.25 C13.7064294,14.25 13.3333333,13.9142136 13.3333333,13.5 C13.3333333,13.0857864 13.7064294,12.75 14.1666667,12.75 L14.1666667,12.75 Z M14.1666667,9.75 L15.8333333,9.75 C16.2935706,9.75 16.6666667,10.0857864 16.6666667,10.5 C16.6666667,10.9142136 16.2935706,11.25 15.8333333,11.25 L14.1666667,11.25 C13.7064294,11.25 13.3333333,10.9142136 13.3333333,10.5 C13.3333333,10.0857864 13.7064294,9.75 14.1666667,9.75 L14.1666667,9.75 Z M15.8333333,8.25 L14.1666667,8.25 C13.7064294,8.25 13.3333333,7.91421356 13.3333333,7.5 C13.3333333,7.08578644 13.7064294,6.75 14.1666667,6.75 L15.8333333,6.75 C16.2935706,6.75 16.6666667,7.08578644 16.6666667,7.5 C16.6666667,7.91421356 16.2935706,8.25 15.8333333,8.25 L15.8333333,8.25 Z M15,4.5 C14.5397627,4.5 14.1666667,4.16421356 14.1666667,3.75 L14.1666667,0.75 C14.1666667,0.335786438 14.5397627,0 15,0 C15.4602373,0 15.8333333,0.335786438 15.8333333,0.75 L15.8333333,3.75 C15.8333333,4.16421356 15.4602373,4.5 15,4.5 L15,4.5 Z M11.6666667,1.5 L13.3333333,1.5 L13.3333333,3 L11.6666667,3 L11.6666667,1.5 L11.6666667,1.5 Z M9.16666667,12.75 L10.8333333,12.75 C11.2935706,12.75 11.6666667,13.0857864 11.6666667,13.5 C11.6666667,13.9142136 11.2935706,14.25 10.8333333,14.25 L9.16666667,14.25 C8.70642938,14.25 8.33333333,13.9142136 8.33333333,13.5 C8.33333333,13.0857864 8.70642938,12.75 9.16666667,12.75 L9.16666667,12.75 Z M9.16666667,9.75 L10.8333333,9.75 C11.2935706,9.75 11.6666667,10.0857864 11.6666667,10.5 C11.6666667,10.9142136 11.2935706,11.25 10.8333333,11.25 L9.16666667,11.25 C8.70642938,11.25 8.33333333,10.9142136 8.33333333,10.5 C8.33333333,10.0857864 8.70642938,9.75 9.16666667,9.75 L9.16666667,9.75 Z M10.8333333,8.25 L9.16666667,8.25 C8.70642938,8.25 8.33333333,7.91421356 8.33333333,7.5 C8.33333333,7.08578644 8.70642938,6.75 9.16666667,6.75 L10.8333333,6.75 C11.2935706,6.75 11.6666667,7.08578644 11.6666667,7.5 C11.6666667,7.91421356 11.2935706,8.25 10.8333333,8.25 L10.8333333,8.25 Z M10,4.5 C9.53976271,4.5 9.16666667,4.16421356 9.16666667,3.75 L9.16666667,0.75 C9.16666667,0.335786438 9.53976271,0 10,0 C10.4602373,0 10.8333333,0.335786438 10.8333333,0.75 L10.8333333,3.75 C10.8333333,4.16421356 10.4602373,4.5 10,4.5 L10,4.5 Z M6.66666667,1.5 L8.33333333,1.5 L8.33333333,3 L6.66666667,3 L6.66666667,1.5 L6.66666667,1.5 Z M4.16666667,12.75 L5.83333333,12.75 C6.29357062,12.75 6.66666667,13.0857864 6.66666667,13.5 C6.66666667,13.9142136 6.29357062,14.25 5.83333333,14.25 L4.16666667,14.25 C3.70642938,14.25 3.33333333,13.9142136 3.33333333,13.5 C3.33333333,13.0857864 3.70642938,12.75 4.16666667,12.75 L4.16666667,12.75 Z M4.16666667,9.75 L5.83333333,9.75 C6.29357062,9.75 6.66666667,10.0857864 6.66666667,10.5 C6.66666667,10.9142136 6.29357062,11.25 5.83333333,11.25 L4.16666667,11.25 C3.70642938,11.25 3.33333333,10.9142136 3.33333333,10.5 C3.33333333,10.0857864 3.70642938,9.75 4.16666667,9.75 L4.16666667,9.75 Z M5.83333333,8.25 L4.16666667,8.25 C3.70642938,8.25 3.33333333,7.91421356 3.33333333,7.5 C3.33333333,7.08578644 3.70642938,6.75 4.16666667,6.75 L5.83333333,6.75 C6.29357062,6.75 6.66666667,7.08578644 6.66666667,7.5 C6.66666667,7.91421356 6.29357062,8.25 5.83333333,8.25 L5.83333333,8.25 Z M5,4.5 C4.53976271,4.5 4.16666667,4.16421356 4.16666667,3.75 L4.16666667,0.75 C4.16666667,0.335786438 4.53976271,0 5,0 C5.46023729,0 5.83333333,0.335786438 5.83333333,0.75 L5.83333333,3.75 C5.83333333,4.16421356 5.46023729,4.5 5,4.5 L5,4.5 Z" id="calendar"></path>
            </g>
        </g>
    </g>
</svg>