<?xml version="1.0" encoding="utf-8"?>
<!-- Generator: Adobe Illustrator 18.1.1, SVG Export Plug-In . SVG Version: 6.00 Build 0)  -->
<svg version="1.1" id="图层_1" xmlns="http://www.w3.org/2000/svg" xmlns:xlink="http://www.w3.org/1999/xlink" x="0px" y="0px"
	 viewBox="-297 389 16 16" enable-background="new -297 389 16 16" xml:space="preserve">
<title>可视 copy@2x</title>
<desc>Created with Sketch.</desc>
<g id="icon">
	<g id="可视-copy">
		<g id="搜索">
		</g>
		<path id="Page-1" fill="#3DA5FE" d="M-289,401.7c-3.3,0-5.9-2.3-6.7-5.2c0.8-2.9,3.4-5.2,6.7-5.2s5.9,2.3,6.7,5.2
			C-283.1,399.4-285.7,401.7-289,401.7 M-289,390c-4.1,0-7,2.9-8,6.5c1,3.6,3.9,6.5,8,6.5s7-2.9,8-6.5C-282,392.9-284.9,390-289,390
			 M-289,393.2c-1.8,0-3.3,1.5-3.3,3.3c0,1.8,1.5,3.3,3.3,3.3c1.8,0,3.3-1.5,3.3-3.3C-285.7,394.7-287.2,393.2-289,393.2"/>
	</g>
</g>
</svg>
