<?xml version="1.0" encoding="utf-8"?>
<!-- Generator: Adobe Illustrator 18.1.1, SVG Export Plug-In . SVG Version: 6.00 Build 0)  -->
<svg version="1.1" id="图层_1" xmlns="http://www.w3.org/2000/svg" xmlns:xlink="http://www.w3.org/1999/xlink" x="0px" y="0px"
	 viewBox="-297 389 16 16" enable-background="new -297 389 16 16" xml:space="preserve">
<title>隐秘 copy@2x</title>
<desc>Created with Sketch.</desc>
<g id="icon">
	<g id="隐秘-copy">
		<g id="搜索">
		</g>
		<path id="Fill-1" fill="#3DA5FE" d="M-281.1,395.1c0.2-0.3,0.2-0.7-0.1-1c-0.3-0.2-0.7-0.2-0.9,0.1c0,0-2.5,3.2-6.8,3.2
			c-4.3,0-6.8-3.2-6.8-3.2c-0.2-0.3-0.7-0.4-0.9-0.1c-0.3,0.2-0.3,0.7-0.1,1c0,0.1,0.4,0.5,1.1,1.1l-1.2,1.5l1,0.9l1.2-1.6
			c0.5,0.3,1.1,0.7,1.8,1l-0.7,2l1.3,0.5l0.7-2c0.6,0.2,1.3,0.3,2,0.3v2.1h1.3v-2.1c0.7,0,1.4-0.2,2-0.3l0.7,2l1.3-0.5l-0.7-1.9
			c0.6-0.3,1.2-0.6,1.7-0.9l1.2,1.6l1-0.9l-1.2-1.5C-281.6,395.7-281.2,395.2-281.1,395.1"/>
	</g>
</g>
</svg>
