<?xml version="1.0" encoding="UTF-8" standalone="no"?>
<svg width="26px" height="26px" viewBox="0 0 26 26" version="1.1" xmlns="http://www.w3.org/2000/svg" xmlns:xlink="http://www.w3.org/1999/xlink">
    <!-- Generator: Sketch 47.1 (45422) - http://www.bohemiancoding.com/sketch -->
    <title>Combined Shape</title>
    <desc>Created with Sketch.</desc>
    <defs></defs>
    <g id="Page-2" stroke="none" stroke-width="1" fill="none" fill-rule="evenodd">
        <g id="勾选" fill="#3DA5FE">
            <path d="M11.2905804,15.3291045 L7.46041868,11.4989428 C7.0373507,11.0758748 6.35142197,11.0758748 5.92835399,11.4989428 C5.505286,11.9220108 5.505286,12.6079395 5.92835399,13.0310075 L10.5245481,17.6272016 C10.7360821,17.8387356 11.0133312,17.9445026 11.2905804,17.9445026 C11.5678296,17.9445026 11.8450788,17.8387356 12.0566128,17.6272016 L20.7383127,8.94550165 C21.1613807,8.52243366 21.1613807,7.83650494 20.7383127,7.41343695 C20.3152447,6.99036897 19.629316,6.99036897 19.206248,7.41343695 L11.2905804,15.3291045 Z M13,26 C5.82029825,26 0,20.1797017 0,13 C0,5.82029825 5.82029825,0 13,0 C20.1797017,0 26,5.82029825 26,13 C26,20.1797017 20.1797017,26 13,26 Z" id="Combined-Shape"></path>
        </g>
    </g>
</svg>