<?xml version="1.0" encoding="UTF-8" standalone="no"?>
<svg width="28px" height="28px" viewBox="0 0 28 28" version="1.1" xmlns="http://www.w3.org/2000/svg" xmlns:xlink="http://www.w3.org/1999/xlink">
    <!-- Generator: Sketch 47.1 (45422) - http://www.bohemiancoding.com/sketch -->
    <title>小关闭</title>
    <desc>Created with Sketch.</desc>
    <defs></defs>
    <g id="正稿" stroke="none" stroke-width="1" fill="none" fill-rule="evenodd">
        <g id="小关闭" fill="#D4D5D9">
            <path d="M14,12.5523785 L1.7474337,0.299812225 C1.34768407,-0.0999374083 0.699561858,-0.0999374083 0.299812225,0.299812225 L0.299812225,0.299812225 L0.299812225,0.299812225 C-0.0999374083,0.699561858 -0.0999374083,1.34768407 0.299812225,1.7474337 L0.299812225,1.7474337 L12.5523785,14 L0.299812225,26.2525663 L0.299812225,26.2525663 C-0.0999374083,26.6523159 -0.0999374083,27.3004381 0.299812225,27.7001878 C0.699561858,28.0999374 1.34768407,28.0999374 1.7474337,27.7001878 L14,15.4476215 L26.2525663,27.7001878 C26.6523159,28.0999374 27.3004381,28.0999374 27.7001878,27.7001878 C28.0999374,27.3004381 28.0999374,26.6523159 27.7001878,26.2525663 L27.7001878,26.2525663 L15.4476215,14 L27.7001878,1.7474337 C28.0999374,1.34768407 28.0999374,0.699561858 27.7001878,0.299812225 L27.7001878,0.299812225 L27.7001878,0.299812225 C27.3004381,-0.0999374083 26.6523159,-0.0999374083 26.2525663,0.299812225 L14,12.5523785 Z" id="Combined-Shape"></path>
        </g>
    </g>
</svg>