<?xml version="1.0" encoding="UTF-8" standalone="no"?>
<svg width="16px" height="16px" viewBox="0 0 16 16" version="1.1" xmlns="http://www.w3.org/2000/svg" xmlns:xlink="http://www.w3.org/1999/xlink">
    <!-- Generator: Sketch 47.1 (45422) - http://www.bohemiancoding.com/sketch -->
    <title>删除@2x</title>
    <desc>Created with Sketch.</desc>
    <defs></defs>
    <g id="icon" stroke="none" stroke-width="1" fill="none" fill-rule="evenodd">
        <g id="删除" fill="#C7C7CC">
            <g id="搜索">
                <path d="M7.47619371,7.06245878 L5.70305278,5.2918515 C5.31316345,4.90251928 4.68154908,4.90274507 4.2919382,5.29235595 L4.2919382,5.29235595 L4.2919382,5.29235595 C4.29177023,5.29252392 4.29160232,5.29269195 4.29143448,5.29286003 C3.90246194,5.68238917 3.90291315,6.31348946 4.29244229,6.702462 L6.06457396,8.47206147 L4.29244229,10.2416609 L4.29244229,10.2416609 C3.90291315,10.6306335 3.90246194,11.2617338 4.29143448,11.6512629 C4.29160232,11.651431 4.29177023,11.651599 4.2919382,11.651767 L4.2919382,11.651767 L4.2919382,11.651767 C4.68154908,12.0413779 5.31316345,12.0416037 5.70305278,11.6522714 L7.47619371,9.88166415 L9.24933464,11.6522714 C9.63922398,12.0416037 10.2708383,12.0413779 10.6604492,11.651767 L10.6604492,11.651767 L10.6604492,11.651767 C10.6606172,11.651599 10.6607851,11.651431 10.660953,11.6512629 C11.0499255,11.2617338 11.0494743,10.6306335 10.6599451,10.2416609 L10.6599451,10.2416609 L8.88781346,8.47206147 L10.6599451,6.702462 C11.0494743,6.31348946 11.0499255,5.68238917 10.660953,5.29286003 C10.6607851,5.29269195 10.6606172,5.29252392 10.6604492,5.29235595 L10.6604492,5.29235595 L10.6604492,5.29235595 C10.2708383,4.90274507 9.63922398,4.90251928 9.24933464,5.2918515 L7.47619371,7.06245878 Z M7.5,16 C3.35786438,16 0,12.6421356 0,8.5 C0,4.35786438 3.35786438,1 7.5,1 C11.6421356,1 15,4.35786438 15,8.5 C15,12.6421356 11.6421356,16 7.5,16 Z" id="Combined-Shape"></path>
            </g>
        </g>
    </g>
</svg>