<?xml version="1.0" encoding="UTF-8" standalone="no"?>
<svg width="32px" height="32px" viewBox="0 0 32 32" version="1.1" xmlns="http://www.w3.org/2000/svg" xmlns:xlink="http://www.w3.org/1999/xlink">
    <!-- Generator: Sketch 49.3 (51167) - http://www.bohemiancoding.com/sketch -->
    <title>编辑</title>
    <desc>Created with Sketch.</desc>
    <defs></defs>
    <g id="编辑" stroke="none" stroke-width="1" fill="none" fill-rule="evenodd">
        <g id="Group-2" fill="#C7C7CC">
            <g id="Group" transform="translate(0.000000, 2.000000)" fill-rule="nonzero">
                <path d="M18.0839203,0 L18.0839203,3 L4,3 C3.44771525,3 3,3.44771525 3,4 L3,26 C3,26.5522847 3.44771525,27 4,27 L26,27 C26.5522847,27 27,26.5522847 27,26 L27,10.0492217 L30,10.0492217 L30,26 C30,28.209139 28.209139,30 26,30 L4,30 C1.790861,30 2.705415e-16,28.209139 0,26 L0,4 C-2.705415e-16,1.790861 1.790861,4.4408921e-16 4,0 L18.0839203,0 Z" id="Rectangle"></path>
            </g>
            <rect id="Rectangle-2" transform="translate(22.045942, 9.389087) rotate(-315.000000) translate(-22.045942, -9.389087) " x="20.5459415" y="-2.3890873" width="3" height="23.5563492" rx="1.5"></rect>
        </g>
    </g>
</svg>