<?xml version="1.0" standalone="no"?><!DOCTYPE svg PUBLIC "-//W3C//DTD SVG 1.1//EN" "http://www.w3.org/Graphics/SVG/1.1/DTD/svg11.dtd"><svg t="1562202966498" class="icon" viewBox="0 0 1024 1024" version="1.1" xmlns="http://www.w3.org/2000/svg" p-id="2702" xmlns:xlink="http://www.w3.org/1999/xlink" width="200" height="200"><defs><style type="text/css"></style></defs><path d="M831.146667 961.237333H613.589333c-20.074667 0-33.472-13.397333-33.472-33.493333v-157.312c0-23.445333-40.170667-46.869333-70.293333-46.869333s-66.944 20.074667-66.944 46.869333v157.333333c0 20.074667-13.397333 33.472-33.493333 33.472H198.485333c-50.218667 0-87.04-36.821333-87.04-83.690666V559.530667c0-20.074667 13.397333-33.493333 33.493334-33.493334 20.053333 0 33.450667 13.418667 33.450666 33.493334v318.016c0 10.026667 6.698667 16.746667 20.096 16.746666h180.757334v-123.861333c0-66.965333 70.314667-113.834667 133.909333-113.834667 63.594667 0 137.237333 46.869333 137.237333 113.834667v123.861333h184.106667c10.048 0 16.746667 0 16.746667-20.096v-314.666666c0-20.074667 13.397333-33.493333 33.493333-33.493334 20.074667 0 33.472 13.418667 33.472 33.493334v318.016c-3.349333 50.218667-36.842667 83.690667-87.04 83.690666M77.973333 492.586667c-10.026667 0-20.074667-3.349333-26.773333-13.397334-13.397333-13.397333-10.048-36.821333 3.328-46.869333l395.029333-324.693333c36.821333-26.794667 90.368-26.794667 123.84 0l395.008 321.344c13.397333 10.048 16.746667 33.493333 3.349334 46.869333-13.397333 13.397333-33.472 16.746667-46.848 3.349333l-391.68-314.666666c-10.026667-6.698667-30.122667-6.698667-40.170667 0L98.048 485.888c-6.677333 6.698667-13.376 6.698667-20.074667 6.698667" p-id="2703"></path></svg>