<?xml version="1.0" standalone="no"?><!DOCTYPE svg PUBLIC "-//W3C//DTD SVG 1.1//EN" "http://www.w3.org/Graphics/SVG/1.1/DTD/svg11.dtd"><svg t="1562202962386" class="icon" viewBox="0 0 1024 1024" version="1.1" xmlns="http://www.w3.org/2000/svg" p-id="2590" xmlns:xlink="http://www.w3.org/1999/xlink" width="200" height="200"><defs><style type="text/css"></style></defs><path d="M966.741333 428.48L575.018667 105.514667c-33.493333-26.901333-90.410667-26.901333-123.882667 0L56.042667 431.829333c-13.376 6.741333-16.725333 23.552-10.026667 37.013334 3.349333 13.44 16.746667 20.181333 30.144 20.181333h33.472V872.533333c0 50.453333 36.821333 87.466667 87.04 87.466667h214.293333c20.074667 0 33.472-13.461333 33.472-33.642667v-154.752c0-23.552 36.821333-47.104 66.965334-47.104 30.122667 0 70.293333 23.552 70.293333 47.104v154.752c0 20.181333 13.397333 33.642667 33.493333 33.642667h217.621334c50.218667 0 83.712-33.642667 83.712-87.466667V489.024h33.472c13.397333 0 26.773333-10.090667 30.122666-23.552 3.349333-13.44 0-26.901333-13.376-36.992" p-id="2591"></path></svg>