<?xml version="1.0" standalone="no"?><!DOCTYPE svg PUBLIC "-//W3C//DTD SVG 1.1//EN" "http://www.w3.org/Graphics/SVG/1.1/DTD/svg11.dtd"><svg t="1562203001883" class="icon" viewBox="0 0 1024 1024" version="1.1" xmlns="http://www.w3.org/2000/svg" p-id="2814" xmlns:xlink="http://www.w3.org/1999/xlink" width="200" height="200"><defs><style type="text/css"></style></defs><path d="M651.989333 627.584c93.653333-52.010667 159.530667-156.053333 159.530667-270.506667A310.826667 310.826667 0 0 0 499.413333 44.949333a310.826667 310.826667 0 0 0-312.149333 312.106667c0 117.930667 62.421333 218.517333 159.530667 270.528-131.776 52.032-232.362667 166.464-260.096 312.128-3.477333 10.410667 0 20.821333 6.933333 27.733333 3.456 10.432 13.866667 13.888 24.277333 13.888h762.986667c10.410667 0 20.8-3.456 27.733333-13.866666 6.933333-6.933333 10.410667-17.344 6.933334-27.733334-27.733333-145.685333-131.776-260.117333-263.573334-312.149333" p-id="2815"></path></svg>