<?xml version="1.0" standalone="no"?><!DOCTYPE svg PUBLIC "-//W3C//DTD SVG 1.1//EN" "http://www.w3.org/Graphics/SVG/1.1/DTD/svg11.dtd"><svg t="1562203012174" class="icon" viewBox="0 0 1024 1024" version="1.1" xmlns="http://www.w3.org/2000/svg" p-id="2926" xmlns:xlink="http://www.w3.org/1999/xlink" width="200" height="200"><defs><style type="text/css"></style></defs><path d="M730.527147 672c-17.066667-10.666667-38.4-6.4-49.066667 10.666667s-6.4 38.4 10.666667 49.066666c78.933333 55.466667 136.533333 132.266667 153.6 221.866667 4.266667 17.066667 17.066667 27.733333 34.133333 27.733333h6.4c17.066667-4.266667 32-21.333333 27.733333-42.666666-21.333333-106.666667-87.466667-200.533333-183.466666-266.666667m-473.6-315.733333c0-136.533333 106.666667-243.2 243.2-243.2s243.2 108.8 243.2 243.2c0 132.266667-106.666667 238.933333-238.933334 243.2h-10.666666c-132.266667-4.266667-236.8-110.933333-236.8-243.2m556.8 0c0-172.8-138.666667-313.6-313.6-313.6-172.8 0-313.6 138.666667-313.6 313.6 0 117.333333 61.866667 219.733333 160 270.933333-132.266667 51.2-232.533333 166.4-260.266667 313.6-4.266667 17.066667 6.4 38.4 27.733333 42.666667h6.4c17.066667 0 32-10.666667 34.133334-27.733334 32-164.266667 172.8-281.6 341.333333-285.866666h6.4c172.8-2.133333 311.466667-140.8 311.466667-313.6" p-id="2927"></path></svg>