<?xml version="1.0" standalone="no"?><!DOCTYPE svg PUBLIC "-//W3C//DTD SVG 1.1//EN" "http://www.w3.org/Graphics/SVG/1.1/DTD/svg11.dtd"><svg t="1573724368539" class="icon" viewBox="0 0 1024 1024" version="1.1" xmlns="http://www.w3.org/2000/svg" p-id="5015" xmlns:xlink="http://www.w3.org/1999/xlink" width="200" height="200"><defs><style type="text/css"></style></defs><path d="M783.872 456.192a38.4 38.4 0 0 1-32.768 43.52 37.888 37.888 0 0 1-43.008-32.768 219.136 219.136 0 0 0-141.312-174.08 38.4 38.4 0 1 1 26.112-72.192 295.936 295.936 0 0 1 190.976 235.52z m177.152-32.256a38.4 38.4 0 0 1-31.744 44.032 38.912 38.912 0 0 1-44.032-32.256 386.56 386.56 0 0 0-280.064-321.536 38.4 38.4 0 0 1 18.432-74.752 464.384 464.384 0 0 1 337.408 384.512zM721.92 1005.568a416.768 416.768 0 0 1-188.416-72.704 1325.056 1325.056 0 0 1-217.6-173.568l-22.016-22.016a1303.552 1303.552 0 0 1-172.032-220.16A427.52 427.52 0 0 1 49.664 326.656 302.592 302.592 0 0 1 114.176 168.96C128 148.992 182.272 82.432 227.328 82.432c18.432 0 38.4 11.776 64.512 39.424a684.544 684.544 0 0 1 59.904 75.264 805.376 805.376 0 0 1 51.2 82.944 153.6 153.6 0 0 1 24.064 68.608 60.416 60.416 0 0 1-30.208 51.2 256 256 0 0 1-44.032 22.528 193.536 193.536 0 0 0-32.768 16.896 263.68 263.68 0 0 0 37.376 70.144 883.2 883.2 0 0 0 82.944 102.4 878.08 878.08 0 0 0 102.4 83.968 284.672 284.672 0 0 0 69.632 37.888 224.256 224.256 0 0 0 16.384-33.28 259.584 259.584 0 0 1 22.528-44.544 59.904 59.904 0 0 1 51.2-30.72 150.016 150.016 0 0 1 68.096 24.576 724.992 724.992 0 0 1 81.92 51.2 634.88 634.88 0 0 1 74.752 60.416 98.816 98.816 0 0 1 38.912 65.024c0 45.568-65.536 98.816-86.016 114.176a295.424 295.424 0 0 1-158.208 65.024z" fill="#3DA5FE" p-id="5016"></path></svg>