<?xml version="1.0" encoding="UTF-8" standalone="no"?>
<svg width="38px" height="38px" viewBox="0 0 38 38" version="1.1" xmlns="http://www.w3.org/2000/svg" xmlns:xlink="http://www.w3.org/1999/xlink">
    <!-- Generator: Sketch 47.1 (45422) - http://www.bohemiancoding.com/sketch -->
    <title>返回</title>
    <desc>Created with Sketch.</desc>
    <defs></defs>
    <g id="Page-2" stroke="none" stroke-width="1" fill="none" fill-rule="evenodd">
        <g id="返回" fill="#7F8389">
            <path d="M6.03093588,20.3564582 L36.5,20.3564582 C37.3284271,20.3564582 38,19.6848853 38,18.8564582 C38,18.0280311 37.3284271,17.3564582 36.5,17.3564582 L5.96726113,17.3564582 L18.7630592,4.56066017 C19.3488456,3.97487373 19.3488456,3.02512627 18.7630592,2.43933983 C18.1772727,1.85355339 17.2275252,1.85355339 16.6417388,2.43933983 L16.6417388,2.43933983 L1.7924964,17.2885822 C1.65146795,17.4296107 1.54439218,17.5917346 1.4712691,17.7647966 C1.18111996,18.0383204 1,18.4262379 1,18.8564582 C1,19.3119312 1.20300647,19.7199896 1.52347434,19.9950881 C1.59229312,20.1266431 1.68196714,20.2501301 1.7924964,20.3606594 L16.6417388,35.2099018 C17.2275252,35.7956883 18.1772727,35.7956883 18.7630592,35.2099018 C19.3488456,34.6241154 19.3488456,33.6743679 18.7630592,33.0885815 L6.03093588,20.3564582 Z" id="Rectangle-69"></path>
        </g>
    </g>
</svg>