<?xml version="1.0" standalone="no"?><!DOCTYPE svg PUBLIC "-//W3C//DTD SVG 1.1//EN" "http://www.w3.org/Graphics/SVG/1.1/DTD/svg11.dtd"><svg t="1573724372858" class="icon" viewBox="0 0 1024 1024" version="1.1" xmlns="http://www.w3.org/2000/svg" p-id="5133" xmlns:xlink="http://www.w3.org/1999/xlink" width="200" height="200"><defs><style type="text/css"></style></defs><path d="M846.778769 378.434783a364.633043 364.633043 0 0 0-684.299131 0A80.13913 80.13913 0 0 0 155.801377 367.749565a356.173913 356.173913 0 0 1 701.217392 0 49.864348 49.864348 0 0 0-10.24 10.685218z m73.015652-44.52174a423.846957 423.846957 0 0 0-830.775652 15.582609A79.248696 79.248696 0 0 0 22.23616 426.963478v157.606957a79.693913 79.693913 0 0 0 79.248696 79.693913 78.358261 78.358261 0 0 0 60.994782-29.384348 365.523478 365.523478 0 0 0 196.34087 206.58087 18.69913 18.69913 0 0 1 4.006956-6.233044c0-2.226087 2.671304-3.561739 4.452174-3.561739h3.561739a356.173913 356.173913 0 0 1-112.64-205.690435 96.612174 96.612174 0 0 1 72.570435-105.071304c68.563478-12.466087 136.681739-27.158261 205.690435-39.624348a119.318261 119.318261 0 0 0 91.714783-72.125217 190.553043 190.553043 0 0 0 13.356521-52.98087 8.013913 8.013913 0 0 1 6.233044-6.678261 8.45913 8.45913 0 0 1 8.904348 3.116522 495.972174 495.972174 0 0 1 89.043478 218.156522c8.45913 105.071304 4.006957 178.086957-76.132174 250.657391a5.342609 5.342609 0 0 0 0 4.452174 6.678261 6.678261 0 0 0 3.116522 5.342609h8.013913a366.413913 366.413913 0 0 0 172.29913-209.252174 83.255652 83.255652 0 0 0 50.754783 33.836521c-34.281739 154.935652-171.853913 251.547826-342.817392 267.130435a68.563478 68.563478 0 1 0 0 44.521739c197.676522-16.027826 356.173913-133.565217 389.12-316.549565A81.029565 81.029565 0 0 0 1001.714421 572.549565V413.161739A81.92 81.92 0 0 0 977.672682 356.173913a81.029565 81.029565 0 0 0-57.878261-23.596522z" fill="#3DA5FE" p-id="5134"></path></svg>