<?xml version="1.0" standalone="no"?><!DOCTYPE svg PUBLIC "-//W3C//DTD SVG 1.1//EN" "http://www.w3.org/Graphics/SVG/1.1/DTD/svg11.dtd"><svg t="1573696664664" class="icon" viewBox="0 0 1024 1024" version="1.1" xmlns="http://www.w3.org/2000/svg" p-id="10415" xmlns:xlink="http://www.w3.org/1999/xlink" width="200" height="200"><defs><style type="text/css"></style></defs><path d="M884.363636 18.618182H139.636364A121.483636 121.483636 0 0 0 18.618182 139.636364v744.727272A121.483636 121.483636 0 0 0 139.636364 1005.381818h744.727272a121.483636 121.483636 0 0 0 121.018182-121.018182V139.636364A121.483636 121.483636 0 0 0 884.363636 18.618182zM949.527273 884.363636a65.163636 65.163636 0 0 1-65.163637 65.163637H139.636364A65.163636 65.163636 0 0 1 74.472727 884.363636V139.636364A65.163636 65.163636 0 0 1 139.636364 74.472727h744.727272A65.163636 65.163636 0 0 1 949.527273 139.636364z" p-id="10416"></path><path d="M860.16 148.945455a27.461818 27.461818 0 0 0-10.705455-2.327273h-279.272727a27.927273 27.927273 0 0 0 0 55.854545h211.781818l-186.181818 186.181818a27.461818 27.461818 0 1 0 39.098182 39.098182l186.181818-186.181818v212.247273a27.927273 27.927273 0 0 0 55.854546 0v-279.272727a27.461818 27.461818 0 0 0-2.327273-10.705455 26.065455 26.065455 0 0 0-14.429091-14.894545zM453.818182 821.527273H242.036364l186.181818-186.181818a27.461818 27.461818 0 0 0-39.098182-39.098182l-186.181818 186.181818v-212.247273a27.927273 27.927273 0 1 0-55.854546 0v279.272727a27.461818 27.461818 0 0 0 2.327273 10.705455 26.065455 26.065455 0 0 0 14.894546 14.894545 27.461818 27.461818 0 0 0 10.705454 2.327273h279.272727a27.927273 27.927273 0 1 0 0-55.854545z" p-id="10417"></path></svg>