<?xml version="1.0" standalone="no"?><!DOCTYPE svg PUBLIC "-//W3C//DTD SVG 1.1//EN" "http://www.w3.org/Graphics/SVG/1.1/DTD/svg11.dtd"><svg t="1573696660615" class="icon" viewBox="0 0 1024 1024" version="1.1" xmlns="http://www.w3.org/2000/svg" p-id="10296" xmlns:xlink="http://www.w3.org/1999/xlink" width="200" height="200"><defs><style type="text/css"></style></defs><path d="M884.363636 18.618182H139.636364A121.483636 121.483636 0 0 0 18.618182 139.636364v744.727272A121.483636 121.483636 0 0 0 139.636364 1005.381818h744.727272a121.483636 121.483636 0 0 0 121.018182-121.018182V139.636364A121.483636 121.483636 0 0 0 884.363636 18.618182zM949.527273 884.363636a65.163636 65.163636 0 0 1-65.163637 65.163637H139.636364A65.163636 65.163636 0 0 1 74.472727 884.363636V139.636364A65.163636 65.163636 0 0 1 139.636364 74.472727h744.727272A65.163636 65.163636 0 0 1 949.527273 139.636364z" p-id="10297"></path><path d="M872.727273 402.618182H660.945455l186.181818-186.181818a27.461818 27.461818 0 0 0-39.098182-39.098182l-186.181818 186.181818V151.272727a27.927273 27.927273 0 0 0-55.854546 0v279.272728a27.461818 27.461818 0 0 0 0 10.705454 26.065455 26.065455 0 0 0 14.894546 14.894546 27.461818 27.461818 0 0 0 10.705454 0h279.272728a27.927273 27.927273 0 0 0 0-55.854546zM441.250909 567.854545a27.461818 27.461818 0 0 0-10.705454 0h-279.272728a27.927273 27.927273 0 0 0 0 55.854546H363.054545l-186.181818 186.181818a27.461818 27.461818 0 1 0 39.098182 39.098182l186.181818-186.181818v211.781818a27.927273 27.927273 0 0 0 55.854546 0v-279.272727a27.461818 27.461818 0 0 0 0-10.705455 26.065455 26.065455 0 0 0-16.756364-16.756364z" p-id="10298"></path></svg>