<?xml version="1.0" standalone="no"?>
<!DOCTYPE svg PUBLIC "-//W3C//DTD SVG 1.1//EN" "http://www.w3.org/Graphics/SVG/1.1/DTD/svg11.dtd" >
<svg xmlns="http://www.w3.org/2000/svg">
<defs>
  <font id="iconfont" horiz-adv-x="222.22222222222223">
    <font-face font-family="iconfont"
      units-per-em="200" ascent="200"
      descent="0" />
    <missing-glyph horiz-adv-x="0" />
    <glyph glyph-name="add"
      unicode="&#xEA01;"
      horiz-adv-x="200" d="M175 93.75H25C21.5625 93.75 18.75 96.5625 18.75 100S21.5625 106.25 25 106.25H175C178.4375 106.25 181.25 103.4375 181.25 100S178.4375 93.75 175 93.75zM100 18.75C96.5625 18.75 93.75 21.5625 93.75 25V175C93.75 178.4375 96.5625 181.25 100 181.25S106.25 178.4375 106.25 175V25C106.25 21.5625 103.4375 18.75 100 18.75z" />
    <glyph glyph-name="app-close"
      unicode="&#xEA02;"
      horiz-adv-x="200" d="M43.161890625 94.8416537109375A7.175233984375 7.175233984375 0 0 0 43.161890625 104.83993046875L137.263319140625 198.0003447265625A7.0576072265625 7.0576072265625 0 0 0 147.0263421875 198.0003447265625L156.7893654296875 188.237321484375A7.175233984375 7.175233984375 0 0 0 156.7893654296875 178.2390447265625L82.4492369140625 104.83993046875A7.175233984375 7.175233984375 0 0 1 82.4492369140625 94.8416537109375L155.848351171875 21.6777931640625A7.175233984375 7.175233984375 0 0 0 155.848351171875 11.67951640625L145.967701171875 1.6812396484375A6.9399802734375 6.9399802734375 0 0 0 136.910438671875 1.6812396484375z" />
    <glyph glyph-name="arrow-down"
      unicode="&#xEA03;"
      horiz-adv-x="200" d="M26.4286586428571 153.5714285714286L10.7142857142857 139.2857142857143L103.5714285714286 46.4285714285714L196.4285714285715 139.2857142857143L182.1428571428572 153.5714285714286L103.5714285714286 75z" />
    <glyph glyph-name="arrow-left"
      unicode="&#xEA04;"
      horiz-adv-x="200" d="M41.09375 100.17578125L125.25390625 184.3359375C129.70703125 188.7890625 136.93359375 188.7890625 141.38671875 184.3359375C145.83984375 179.8828125 145.83984375 172.65625 141.38671875 168.203125L73.37890625 100.17578125L141.40625 32.1484375C145.859375 27.6953125 145.859375 20.46875 141.40625 16.015625C136.953125 11.5625 129.7265625 11.5625 125.2734375 16.015625L41.09375 100.17578125L41.09375 100.17578125zM41.09375 100.17578125" />
    <glyph glyph-name="arrow-right"
      unicode="&#xEA05;"
      horiz-adv-x="200" d="M50 177.1427699285714L64.2857142857143 192.8571428571429L157.1428571428572 100L64.2857142857143 7.1428571428571L50 21.4285714285714L128.5714285714286 100z" />
    <glyph glyph-name="arrow-up"
      unicode="&#xEA06;"
      horiz-adv-x="200" d="M26.4286586428571 46.4285714285714L10.7142857142857 60.7142857142857L103.5714285714286 153.5714285714286L196.4285714285715 60.7142857142857L182.1428571428572 46.4285714285714L103.5714285714286 125z" />
    <glyph glyph-name="backspace"
      unicode="&#xEA07;"
      horiz-adv-x="200" d="M172.2502142578125 162.5112173828125L70.3566982421875 162.5112173828125C64.4137275390625 162.5112173828125 58.8718849609375 159.7640798828125 55.15900234375 154.9759263671875L12.5566865234375 100.0497662109375L55.154805078125 45.1236060546875C58.8718849609375 40.3352525390625 64.40933046875 37.5883150390625 70.3566982421875 37.5883150390625L172.250214453125 37.5883150390625C180.59675546875 37.5883150390625 187.3887505859375 44.940730078125 187.3887505859375 53.979201953125L187.388750390625 146.1181318359375C187.388750390625 155.1568037109375 180.59675546875 162.5112173828125 172.2502142578125 162.5112173828125zM174.412948046875 53.9792021484375C174.412948046875 52.34970703125 173.4246181640625 50.9728404296875 172.250214453125 50.9728404296875L70.3566982421875 50.9728404296875C68.37564140625 50.9728404296875 66.525695703125 51.8878201171875 65.2879349609375 53.4847373046875L29.1734205078125 100.0497662109375L65.2879349609375 146.614994921875C66.52969296875 148.2119123046875 68.37564140625 149.1266919921875 70.3566982421875 149.1266919921875L172.250214453125 149.1266919921875C173.424418359375 149.1266919921875 174.412948046875 147.7498255859375 174.412948046875 146.1181318359375L174.412948046875 53.9792021484375zM147.6416990234375 133.78149609375C145.1074171875 136.3957236328125 141.00180078125 136.3957236328125 138.4673193359375 133.78149609375L114.940070703125 109.51315L91.4128220703125 133.78149609375C88.878540234375 136.3957236328125 84.7727240234375 136.3957236328125 82.2384423828125 133.78149609375C79.704160546875 131.1694669921875 79.704160546875 126.93014140625 82.2384423828125 124.3181123046875L105.7656908203125 100.0497662109375L82.2386421875 75.7814201171875C79.7043603515625 73.169391015625 79.7043603515625 68.9300654296875 82.2386421875 66.318036328125C83.5057830078125 65.0109224609375 85.1658576171875 64.357365625 86.8257322265625 64.357365625C88.485806640625 64.357365625 90.14568125 65.0109224609375 91.412822265625 66.318036328125L114.940070703125 90.586382421875L138.467319140625 66.318036328125C139.7344599609375 65.0109224609375 141.3945345703125 64.357365625 143.0544091796875 64.357365625C144.71448359375 64.357365625 146.374358203125 65.0109224609375 147.64149921875 66.318036328125C150.1757810546875 68.9300654296875 150.1757810546875 73.169391015625 147.64149921875 75.7814201171875L124.114450390625 100.0497662109375L147.641698828125 124.3181123046875C150.1759806640625 126.93014140625 150.1759806640625 131.1694671875 147.6416990234375 133.78149609375z" />
    <glyph glyph-name="bell-active"
      unicode="&#xEA08;"
      horiz-adv-x="200" d="M162.0947052734375 42.4978751953125L155.195050390625 61.9969001953125A6.899655078125 6.899655078125 0 0 0 155.195050390625 64.4967751953125V119.494025390625A56.9971501953125 56.9971501953125 0 1 1 41.20075 119.494025390625V64.4967751953125A6.899655078125 6.899655078125 0 0 0 41.20075 61.9969001953125L34.701075 42.4978751953125zM82.098705078125 26.498675A17.0991451171875 17.0991451171875 0 0 1 113.49713515625 26.498675zM85.99851015625 191.490425390625A12.99935 12.99935 0 0 0 110.397290234375 191.490425390625A73.29633515625 73.29633515625 0 0 0 171.194250390625 119.494025390625V65.79671015625L181.193750390625 36.99815A7.9996 7.9996 0 0 0 173.59413046875 26.498675H130.4962853515625A32.99835 32.99835 0 0 0 65.8995150390625 26.498675H23.20165A7.9996 7.9996 0 0 0 15.20205 36.99815L25.20155 65.79671015625V119.494025390625A73.29633515625 73.29633515625 0 0 0 85.99851015625 191.490425390625zM150.195300390625 144.992750390625M115.1970501953125 144.992750390625A34.99825 34.99825 0 1 1 185.193550390625 144.992750390625A34.99825 34.99825 0 1 1 115.1970501953125 144.992750390625z" />
    <glyph glyph-name="bell"
      unicode="&#xEA09;"
      horiz-adv-x="200" d="M163.92631484375 42.419088671875L157.0232083984375 61.927867578125A6.9031064453125 6.9031064453125 0 0 0 157.0232083984375 64.42899296875V119.4537541015625A57.0256615234375 57.0256615234375 0 1 1 42.9718853515625 119.4537541015625V64.42899296875A6.9031064453125 6.9031064453125 0 0 0 42.9718853515625 61.927867578125L36.468958984375 42.419088671875zM83.8902986328125 26.4118853515625A17.1076984375 17.1076984375 0 0 1 115.3044349609375 26.4118853515625zM87.7920544921875 191.48616875A13.0058525390625 13.0058525390625 0 0 0 112.203039453125 191.48616875A73.3329998046875 73.3329998046875 0 0 0 173.03041171875 119.4537541015625V65.7295783203125L183.034913671875 36.9166125A8.0036015625 8.0036015625 0 0 0 175.4314921875 26.4118853515625H132.3120884765625A33.014856640625 33.014856640625 0 0 0 67.6830052734375 26.4118853515625H24.963781640625A8.0036015625 8.0036015625 0 0 0 16.960180078125 36.9166125L26.96468203125 65.7295783203125V119.4537541015625A73.3329998046875 73.3329998046875 0 0 0 87.7920544921875 191.48616875z" />
    <glyph glyph-name="calendar"
      unicode="&#xEA0A;"
      horiz-adv-x="222.22222222222223" d="M203.7037033333333 0L18.5185185555556 0C8.2910231555556 0 0 7.4619211111111 0 16.6666666666667L0 166.6666666666667C0 175.8714124444445 8.2910231555556 183.3333333333334 18.5185185555556 183.3333333333334L37.037037 183.3333333333334L37.037037 166.6666666666667L18.5185185555556 166.6666666666667L18.5185185555556 16.6666666666667L203.7037033333333 16.6666666666667L203.7037033333333 166.6666666666667L185.1851855555556 166.6666666666667L185.1851855555556 183.3333333333334L203.7037033333333 183.3333333333334C213.9311988888889 183.3333333333334 222.2222222222222 175.8714124444445 222.2222222222222 166.6666666666667L222.2222222222222 16.6666666666667C222.2222222222222 7.4619211111111 213.9311988888889 0 203.7037033333333 0L203.7037033333333 0zM157.4074077777778 58.3333333333333L175.9259255555556 58.3333333333333C181.0396733333333 58.3333333333333 185.1851855555556 54.6023733333333 185.1851855555556 50C185.1851855555556 45.3976266666667 181.0396733333333 41.6666666666667 175.9259255555556 41.6666666666667L157.4074077777778 41.6666666666667C152.29366 41.6666666666667 148.1481477777778 45.3976266666667 148.1481477777778 50C148.1481477777778 54.6023733333333 152.29366 58.3333333333333 157.4074077777778 58.3333333333333L157.4074077777778 58.3333333333333zM157.4074077777778 91.6666666666667L175.9259255555556 91.6666666666667C181.0396733333333 91.6666666666667 185.1851855555556 87.9357066666667 185.1851855555556 83.3333333333333C185.1851855555556 78.73096 181.0396733333333 75 175.9259255555556 75L157.4074077777778 75C152.29366 75 148.1481477777778 78.73096 148.1481477777778 83.3333333333333C148.1481477777778 87.9357066666667 152.29366 91.6666666666667 157.4074077777778 91.6666666666667L157.4074077777778 91.6666666666667zM175.9259255555556 108.3333333333333L157.4074077777778 108.3333333333333C152.29366 108.3333333333333 148.1481477777778 112.0642937777778 148.1481477777778 116.6666666666667C148.1481477777778 121.2690395555556 152.29366 125 157.4074077777778 125L175.9259255555556 125C181.0396733333333 125 185.1851855555556 121.2690395555556 185.1851855555556 116.6666666666667C185.1851855555556 112.0642937777778 181.0396733333333 108.3333333333333 175.9259255555556 108.3333333333333L175.9259255555556 108.3333333333333zM166.6666666666667 150C161.5529188888889 150 157.4074077777778 153.7309604444444 157.4074077777778 158.3333333333334L157.4074077777778 191.6666666666667C157.4074077777778 196.2690395777778 161.5529188888889 200 166.6666666666667 200C171.7804144444444 200 175.9259255555556 196.2690395777778 175.9259255555556 191.6666666666667L175.9259255555556 158.3333333333334C175.9259255555556 153.7309604444444 171.7804144444444 150 166.6666666666667 150L166.6666666666667 150zM129.62963 183.3333333333334L148.1481477777778 183.3333333333334L148.1481477777778 166.6666666666667L129.62963 166.6666666666667L129.62963 183.3333333333334L129.62963 183.3333333333334zM101.8518518888889 58.3333333333333L120.37037 58.3333333333333C125.4841177777778 58.3333333333333 129.62963 54.6023733333333 129.62963 50C129.62963 45.3976266666667 125.4841177777778 41.6666666666667 120.37037 41.6666666666667L101.8518518888889 41.6666666666667C96.7381042222222 41.6666666666667 92.5925925555556 45.3976266666667 92.5925925555556 50C92.5925925555556 54.6023733333333 96.7381042222222 58.3333333333333 101.8518518888889 58.3333333333333L101.8518518888889 58.3333333333333zM101.8518518888889 91.6666666666667L120.37037 91.6666666666667C125.4841177777778 91.6666666666667 129.62963 87.9357066666667 129.62963 83.3333333333333C129.62963 78.73096 125.4841177777778 75 120.37037 75L101.8518518888889 75C96.7381042222222 75 92.5925925555556 78.73096 92.5925925555556 83.3333333333333C92.5925925555556 87.9357066666667 96.7381042222222 91.6666666666667 101.8518518888889 91.6666666666667L101.8518518888889 91.6666666666667zM120.37037 108.3333333333333L101.8518518888889 108.3333333333333C96.7381042222222 108.3333333333333 92.5925925555556 112.0642937777778 92.5925925555556 116.6666666666667C92.5925925555556 121.2690395555556 96.7381042222222 125 101.8518518888889 125L120.37037 125C125.4841177777778 125 129.62963 121.2690395555556 129.62963 116.6666666666667C129.62963 112.0642937777778 125.4841177777778 108.3333333333333 120.37037 108.3333333333333L120.37037 108.3333333333333zM111.1111111111111 150C105.9973634444444 150 101.8518518888889 153.7309604444444 101.8518518888889 158.3333333333334L101.8518518888889 191.6666666666667C101.8518518888889 196.2690395777778 105.9973634444444 200 111.1111111111111 200C116.2248588888889 200 120.37037 196.2690395777778 120.37037 191.6666666666667L120.37037 158.3333333333334C120.37037 153.7309604444444 116.2248588888889 150 111.1111111111111 150L111.1111111111111 150zM74.0740741111111 183.3333333333334L92.5925925555556 183.3333333333334L92.5925925555556 166.6666666666667L74.0740741111111 166.6666666666667L74.0740741111111 183.3333333333334L74.0740741111111 183.3333333333334zM46.2962963333333 58.3333333333333L64.8148147777778 58.3333333333333C69.9285624444444 58.3333333333333 74.0740741111111 54.6023733333333 74.0740741111111 50C74.0740741111111 45.3976266666667 69.9285624444444 41.6666666666667 64.8148147777778 41.6666666666667L46.2962963333333 41.6666666666667C41.1825486666667 41.6666666666667 37.037037 45.3976266666667 37.037037 50C37.037037 54.6023733333333 41.1825486666667 58.3333333333333 46.2962963333333 58.3333333333333L46.2962963333333 58.3333333333333zM46.2962963333333 91.6666666666667L64.8148147777778 91.6666666666667C69.9285624444444 91.6666666666667 74.0740741111111 87.9357066666667 74.0740741111111 83.3333333333333C74.0740741111111 78.73096 69.9285624444444 75 64.8148147777778 75L46.2962963333333 75C41.1825486666667 75 37.037037 78.73096 37.037037 83.3333333333333C37.037037 87.9357066666667 41.1825486666667 91.6666666666667 46.2962963333333 91.6666666666667L46.2962963333333 91.6666666666667zM64.8148147777778 108.3333333333333L46.2962963333333 108.3333333333333C41.1825486666667 108.3333333333333 37.037037 112.0642937777778 37.037037 116.6666666666667C37.037037 121.2690395555556 41.1825486666667 125 46.2962963333333 125L64.8148147777778 125C69.9285624444444 125 74.0740741111111 121.2690395555556 74.0740741111111 116.6666666666667C74.0740741111111 112.0642937777778 69.9285624444444 108.3333333333333 64.8148147777778 108.3333333333333L64.8148147777778 108.3333333333333zM55.5555555555556 150C50.4418078888889 150 46.2962963333333 153.7309604444444 46.2962963333333 158.3333333333334L46.2962963333333 191.6666666666667C46.2962963333333 196.2690395777778 50.4418078888889 200 55.5555555555556 200C60.6693032222222 200 64.8148147777778 196.2690395777778 64.8148147777778 191.6666666666667L64.8148147777778 158.3333333333334C64.8148147777778 153.7309604444444 60.6693032222222 150 55.5555555555556 150L55.5555555555556 150z" />
    <glyph glyph-name="camera"
      unicode="&#xEA0B;"
      horiz-adv-x="200" d="M9.986458125 18.82034875C4.4576991375 18.82034875 0 23.35868125 0 28.956998125L0 140.6577913125C0 146.2515934375 4.4762906125 150.794440375 9.9980749375 150.794440375L40.0019250625 150.794440375C45.5628335625 150.794440375 50.7329935625 155.259186375 51.637187 160.7667296875L53.362813 171.27771075C54.26223275 176.7561773125 59.4661595 181.25 64.97544625 181.25L135.02455375 181.25C140.53688625 181.25 145.73299375 176.785254 146.637186875 171.27771075L148.362813125 160.7667296875C149.2622325 155.288263125 154.476290625 150.794440375 159.998075 150.794440375L190.001925 150.794440375C195.56283375 150.794440375 200 146.256108 200 140.6577913125L200 85.492426875L200 18.75L9.986458125 18.82034875zM100 54.351835C119.32996625 54.351835 135 70.259823125 135 89.88332125C135 109.506819375 119.32996625 125.4148075 100 125.4148075C80.67003375 125.4148075 65 109.506819375 65 89.88332125C65 70.259823125 80.67003375 54.351835 100 54.351835z" />
    <glyph glyph-name="can-see-pass"
      unicode="&#xEA0C;"
      horiz-adv-x="200" d="M100 41.2500000000001C58.75 41.2500000000001 26.25 70.0000000000001 16.25 106.2500000000001C26.25 142.5000000000002 58.75 171.2500000000002 100 171.2500000000002S173.75 142.5000000000002 183.75 106.2500000000001C173.7499999999997 70.0000000000003 141.2500000000002 41.2500000000001 100 41.2500000000001M100 187.5C48.75 187.5 12.5 151.25 0 106.25C12.5 61.25 48.75 25 100 25S187.5 61.25 200 106.25C187.5 151.2500000000003 151.2500000000003 187.5 100 187.5M100 147.5000000000002C77.5 147.5000000000002 58.75 128.7500000000002 58.75 106.2500000000001C58.75 83.7500000000001 77.5 65.0000000000001 100 65.0000000000001C122.5 65.0000000000001 141.25 83.7500000000001 141.25 106.2500000000001C141.2500000000002 128.7500000000002 122.5000000000002 147.5000000000002 100 147.5000000000002" />
    <glyph glyph-name="cant-see-pass"
      unicode="&#xEA0D;"
      horiz-adv-x="200" d="M198.7499999999997 123.7499999999997C201.2499999999997 127.4999999999997 201.2499999999997 132.4999999999997 197.4999999999997 136.2499999999997C193.7499999999997 138.7499999999997 188.7499999999997 138.7499999999997 186.2499999999997 134.9999999999997C186.2499999999997 134.9999999999997 154.9999999999997 94.9999999999997 101.2499999999997 94.9999999999997C47.4999999999997 94.9999999999997 16.2499999999997 134.9999999999997 16.2499999999997 134.9999999999997C13.7499999999997 138.7499999999997 7.4999999999997 139.9999999999997 4.9999999999997 136.2499999999997C1.2499999999997 133.7499999999997 1.2499999999997 127.4999999999997 3.7499999999997 123.7499999999997C3.7499999999997 122.4999999999997 8.7499999999997 117.4999999999997 17.4999999999997 109.9999999999997L2.4999999999997 91.2499999999997L14.9999999999997 79.9999999999997L29.9999999999997 99.9999999999997C36.2499999999997 96.2499999999997 43.7499999999997 91.2499999999997 52.4999999999997 87.4999999999997L43.7499999999997 62.4999999999997L59.9999999999997 56.2499999999997L68.7499999999997 81.2499999999997C76.2499999999997 78.7499999999997 84.9999999999997 77.4999999999997 93.7499999999997 77.4999999999997V51.2499999999997H109.9999999999997V77.4999999999997C118.7499999999997 77.4999999999997 127.4999999999997 79.9999999999997 134.9999999999997 81.2499999999997L143.7499999999997 56.2499999999997L159.9999999999997 62.4999999999997L151.2499999999997 86.2499999999997C158.7499999999997 89.9999999999997 166.2499999999997 93.7499999999997 172.4999999999997 97.4999999999997L187.4999999999997 77.4999999999997L199.9999999999997 88.7499999999997L184.9999999999997 107.4999999999997C192.4999999999997 116.2500000000002 197.5000000000002 122.5000000000002 198.7499999999997 123.7499999999997" />
    <glyph glyph-name="checked"
      unicode="&#xEA0E;"
      horiz-adv-x="200" d="M86.8506184615385 82.0838115384615L57.387836 111.5465938461538C54.1334669230769 114.8009630769231 48.8570920769231 114.8009630769231 45.602723 111.5465938461538C42.3483538461539 108.2922246153846 42.3483538461539 103.01585 45.602723 99.7614807692308L80.9580623076923 64.4061415384615C82.5852469230769 62.7789569230769 84.7179323076923 61.9653646153846 86.8506184615385 61.9653646153846C88.9833046153846 61.9653646153846 91.1159907692308 62.7789569230769 92.7431753846154 64.4061415384615L159.5254823076923 131.1884488461539C162.7798515384616 134.442818 162.7798515384616 139.7191927692308 159.5254823076923 142.9735619230769C156.2711130769231 146.227931 150.9947384615385 146.227931 147.7403692307692 142.9735619230769L86.8506184615385 82.0838115384615zM100 0C44.771525 0 0 44.7715253846154 0 100C0 155.228475 44.771525 200 100 200C155.2284746153846 200 200 155.228475 200 100C200 44.7715253846154 155.2284746153846 0 100 0z" />
    <glyph glyph-name="close"
      unicode="&#xEA0F;"
      horiz-adv-x="200" d="M100 110.3401535714286L12.4816692857143 197.8584841071429C9.6263147857143 200.7138386307143 4.9968704142857 200.7138386307143 2.1415158928571 197.8584841071429L2.1415158928571 197.8584841071429L2.1415158928571 197.8584841071429C-0.7138386307143 195.0031295857143 -0.7138386307143 190.3736852142857 2.1415158928571 187.5183307142857L2.1415158928571 187.5183307142857L89.6598464285714 100L2.1415158928571 12.4816692857143L2.1415158928571 12.4816692857143C-0.7138386307143 9.626315 -0.7138386307143 4.9968707142857 2.1415158928571 2.1415157142857C4.9968704142857 -0.7138385714286 9.6263147857143 -0.7138385714286 12.4816692857143 2.1415157142857L100 89.6598464285714L187.5183307142857 2.1415157142857C190.373685 -0.7138385714286 195.0031292857143 -0.7138385714286 197.8584842857143 2.1415157142857C200.7138385714286 4.9968707142857 200.7138385714286 9.626315 197.8584842857143 12.4816692857143L197.8584842857143 12.4816692857143L110.3401535714286 100L197.8584842857143 187.5183307142857C200.7138385714286 190.3736852142857 200.7138385714286 195.0031295857143 197.8584842857143 197.8584841071429L197.8584842857143 197.8584841071429L197.8584842857143 197.8584841071429C195.0031292857143 200.7138386307143 190.373685 200.7138386307143 187.5183307142857 197.8584841071429L100 110.3401535714286z" />
    <glyph glyph-name="copy"
      unicode="&#xEA10;"
      horiz-adv-x="200" d="M175 41.6666666015625L150 41.6666666015625C145.4166666015625 41.6666666015625 141.6666666015625 45.4166666015625 141.6666666015625 50C141.6666666015625 54.5833333984375 145.4166666015625 58.3333333984375 150 58.3333333984375L170.8333333984375 58.3333333984375C173.3333333984375 58.3333333984375 175 60 175 62.5L175 179.1666666015625C175 181.6666666015625 173.3333333984375 183.333333203125 170.8333333984375 183.333333203125L87.5 183.3333333984375C85 183.3333333984375 83.3333333984375 181.666666796875 83.3333333984375 179.166666796875L83.3333333984375 175.0000001953125C83.3333333984375 170.416666796875 79.5833333984375 166.666666796875 75 166.666666796875C70.4166666015625 166.666666796875 66.6666666015625 170.416666796875 66.6666666015625 175.0000001953125L66.6666666015625 183.3333333984375C66.6666666015625 192.5 74.1666666015625 200 83.333333203125 200L174.9999998046875 200C184.16666640625 200 191.66666640625 192.5 191.66666640625 183.3333333984375L191.66666640625 58.3333333984375C191.6666666015625 49.1666666015625 184.1666666015625 41.6666666015625 175 41.6666666015625zM133.3333333984375 141.6666666015625L133.3333333984375 16.6666666015625C133.3333333984375 7.5 125.8333333984375 0 116.666666796875 0L25 0C15.8333333984375 0 8.3333333984375 7.5 8.3333333984375 16.6666666015625L8.3333333984375 141.6666666015625C8.3333333984375 150.833333203125 15.8333333984375 158.333333203125 25 158.333333203125L116.6666666015625 158.333333203125C125.8333333984375 158.3333333984375 133.3333333984375 150.8333333984375 133.3333333984375 141.6666666015625zM112.5 141.6666666015625L29.1666666015625 141.6666666015625C26.6666666015625 141.6666666015625 25 140 25 137.5L25 20.8333333984375C25 18.3333333984375 26.6666666015625 16.666666796875 29.1666666015625 16.666666796875L112.5 16.666666796875C115 16.666666796875 116.6666666015625 18.3333333984375 116.6666666015625 20.8333333984375L116.6666666015625 137.5C116.6666666015625 140 115 141.6666666015625 112.5 141.6666666015625z" />
    <glyph glyph-name="del"
      unicode="&#xEA11;"
      horiz-adv-x="200" d="M93.452421375 111.71926525L71.28815975 133.85185625C66.414543125 138.718509 58.5193635 138.715686625 53.6492275 133.845550625L53.6492275 133.845550625L53.6492275 133.845550625C53.647127875 133.843451 53.645029 133.841350625 53.642931 133.839249625C48.78077425 128.970135375 48.786414375 121.08138175 53.655528625 116.219225L75.8071745 94.099231625L53.655528625 71.97923875L53.655528625 71.97923875C48.786414375 67.11708125 48.78077425 59.2283275 53.642931 54.35921375C53.645029 54.3571125 53.647127875 54.3550125 53.6492275 54.3529125L53.6492275 54.3529125L53.6492275 54.3529125C58.5193635 49.48277625 66.414543125 49.47995375 71.28815975 54.3466075L93.452421375 76.479198125L115.616683 54.3466075C120.49029975 49.47995375 128.38547875 49.48277625 133.255615 54.3529125L133.255615 54.3529125L133.255615 54.3529125C133.257715 54.3550125 133.25981375 54.3571125 133.2619125 54.35921375C138.12406875 59.2283275 138.11842875 67.11708125 133.24931375 71.97923875L133.24931375 71.97923875L111.09766825 94.099231625L133.24931375 116.219225C138.11842875 121.08138175 138.12406875 128.970135375 133.2619125 133.839249625C133.25981375 133.841350625 133.257715 133.843451 133.255615 133.845550625L133.255615 133.845550625L133.255615 133.845550625C128.38547875 138.715686625 120.49029975 138.718509 115.616683 133.85185625L93.452421375 111.71926525zM93.75 0C41.97330475 0 0 41.973305 0 93.75C0 145.52669525 41.97330475 187.5 93.75 187.5C145.526695 187.5 187.5 145.52669525 187.5 93.75C187.5 41.973305 145.526695 0 93.75 0z" />
    <glyph glyph-name="edit"
      unicode="&#xEA12;"
      horiz-adv-x="200" d="M113.024501875 187.5L113.024501875 168.75L25 168.75C21.5482203125 168.75 18.75 165.9517796875 18.75 162.5L18.75 25C18.75 21.548220625 21.5482203125 18.75 25 18.75L162.5 18.75C165.951779375 18.75 168.75 21.548220625 168.75 25L168.75 124.692364375L187.5 124.692364375L187.5 25C187.5 11.19288125 176.30711875 0 162.5 0L25 0C11.19288125 0 0 11.19288125 0 25L0 162.5C0 176.30711875 11.19288125 187.5 25 187.5L113.024501875 187.5zM189.8398035248358 193.3708766942532L189.8398035248358 193.3708766942532A9.375 9.375 0 0 0 189.8398035248358 180.1126245470054L98.9927165513442 89.2655375735138A9.375 9.375 0 0 0 85.7344644040964 89.2655375735138L85.7344644040964 89.2655375735138A9.375 9.375 0 0 0 85.7344644040964 102.5237897207615L176.581551377588 193.3708766942531A9.375 9.375 0 0 0 189.8398035248358 193.3708766942531z" />
    <glyph glyph-name="home-active"
      unicode="&#xEA13;"
      horiz-adv-x="200" d="M188.8166666015625 116.3125L112.3083333984375 179.3916666015625C105.766666796875 184.645833203125 94.65 184.645833203125 88.1125 179.3916666015625L10.9458333984375 115.6583333984375C8.3333333984375 114.341666796875 7.679166796875 111.0583333984375 8.9875 108.4291666015625C9.6416666015625 105.8041666015625 12.2583333984375 104.4875 14.875 104.4875H21.4125V29.5833333984375C21.4125 19.729166796875 28.6041666015625 12.5 38.4125 12.5H80.2666666015625C84.1875 12.5 86.8041666015625 15.1291666015625 86.8041666015625 19.0708333984375V49.2958333984375C86.8041666015625 53.8958333984375 93.995833203125 58.4958333984375 99.8833333984375 58.4958333984375C105.766666796875 58.4958333984375 113.6125 53.8958333984375 113.6125 49.2958333984375V19.0708333984375C113.6125 15.129166796875 116.2291666015625 12.5 120.1541666015625 12.5H162.6583333984375C172.466666796875 12.5 179.0083333984375 19.0708333984375 179.0083333984375 29.5833333984375V104.4875H185.5458333984375C188.1625 104.4875 190.775 106.4583333984375 191.4291666015625 109.0875C192.083333203125 111.7125 191.4291666015625 114.3416666015625 188.8166666015625 116.3125" />
    <glyph glyph-name="home"
      unicode="&#xEA14;"
      horiz-adv-x="200" d="M162.3333333984375 12.2583333984375H119.8416666015625C115.920833203125 12.2583333984375 113.3041666015625 14.875 113.3041666015625 18.8V49.525C113.3041666015625 54.1041666015625 105.458333203125 58.6791666015625 99.575 58.6791666015625S86.5 54.758333203125 86.5 49.525V18.7958333984375C86.5 14.875 83.8833333984375 12.2583333984375 79.9583333984375 12.2583333984375H38.7666666015625C28.958333203125 12.2583333984375 21.7666666015625 19.45 21.7666666015625 28.6041666015625V90.7166666015625C21.7666666015625 94.6375 24.383333203125 97.258333203125 28.3083333984375 97.2583333984375C32.225 97.2583333984375 34.841666796875 94.6375 34.8416666015625 90.7166666015625V28.6041666015625C34.8416666015625 26.645833203125 36.15 25.333333203125 38.7666666015625 25.3333333984375H74.0708333984375V49.525C74.0708333984375 62.6041666015625 87.804166796875 71.7583333984375 100.225 71.7583333984375C112.6458333984375 71.7583333984375 127.0291666015625 62.604166796875 127.0291666015625 49.525V25.3333333984375H162.9875C164.95 25.3333333984375 166.2583333984375 25.3333333984375 166.2583333984375 29.2583333984375V90.7166666015625C166.2583333984375 94.6375 168.875 97.258333203125 172.8 97.2583333984375C176.7208333984375 97.2583333984375 179.3375 94.6375 179.3375 90.7166666015625V28.6041666015625C178.6833333984375 18.795833203125 172.1416666015625 12.258333203125 162.3375 12.2583333984375M15.2291666015625 103.7916666015625C13.270833203125 103.7916666015625 11.308333203125 104.445833203125 10 106.4083333984375C7.3833333984375 109.025 8.0375 113.6 10.65 115.5625L87.8041666015625 178.9791666015625C94.995833203125 184.2125 105.4541666015625 184.2125 111.9916666015625 178.9791666015625L189.1416666015625 116.2166666015625C191.758333203125 114.2541666015625 192.4125 109.675 189.7958333984375 107.0625C187.179166796875 104.4458333984375 183.2583333984375 103.7916666015625 180.6458333984375 106.4083333984375L104.1458333984375 167.8666666015625C102.1875 169.175 98.2625 169.175 96.3 167.8666666015625L19.15 105.1C17.8458333984375 103.7916666015625 16.5375 103.7916666015625 15.2291666015625 103.7916666015625" />
    <glyph glyph-name="mine-active"
      unicode="&#xEA15;"
      horiz-adv-x="200" d="M127.3416666015625 77.425C145.633333203125 87.5833333984375 158.5 107.9041666015625 158.5 130.2583333984375A60.7083333984375 60.7083333984375 0 0 1 97.5416666015625 191.2208333984375A60.7083333984375 60.7083333984375 0 0 1 36.575 130.2625C36.575 107.2291666015625 48.7666666015625 87.5833333984375 67.7333333984375 77.425C41.9958333984375 67.2625 22.35 44.9125 16.9333333984375 16.4625C16.254166796875 14.4291666015625 16.9333333984375 12.3958333984375 18.2875 11.0458333984375C18.9625 9.0083333984375 20.9958333984375 8.3333333984375 23.0291666015625 8.3333333984375H172.05C174.0833333984375 8.3333333984375 176.1125 9.0083333984375 177.4666666015625 11.0416666015625C178.820833203125 12.395833203125 179.5 14.4291666015625 178.8208333984375 16.4583333984375C173.404166796875 44.9125 153.0833333984375 67.2625 127.3416666015625 77.425" />
    <glyph glyph-name="mine"
      unicode="&#xEA16;"
      horiz-adv-x="200" d="M142.6810833984375 68.75C139.34775 70.8333333984375 135.1810833984375 70 133.09775 66.6666666015625S131.84775 59.1666666015625 135.1810833984375 57.0833333984375C150.59775 46.25 161.84775 31.25 165.1810833984375 13.75C166.014416796875 10.4166666015625 168.514416796875 8.3333333984375 171.84775 8.3333333984375H173.09775C176.4310833984375 9.166666796875 179.34775 12.5 178.5144166015625 16.6666666015625C174.34775 37.5 161.431083203125 55.833333203125 142.6810833984375 68.75M50.1810833984375 130.4166666015625C50.1810833984375 157.083333203125 71.014416796875 177.9166666015625 97.6810833984375 177.9166666015625S145.1810833984375 156.6666666015625 145.1810833984375 130.4166666015625C145.1810833984375 104.583333203125 124.34775 83.75 98.5144166015625 82.9166666015625H96.4310833984375C70.59775 83.75 50.1810833984375 104.583333203125 50.1810833984375 130.4166666015625M158.9310833984375 130.4166666015625C158.9310833984375 164.1666666015625 131.84775 191.6666666015625 97.6810833984375 191.6666666015625C63.9310833984375 191.6666666015625 36.4310833984375 164.583333203125 36.4310833984375 130.4166666015625C36.4310833984375 107.5 48.514416796875 87.5 67.6810833984375 77.5C41.84775 67.5 22.264416796875 45 16.84775 16.25C16.0144166015625 12.9166666015625 18.09775 8.75 22.2644166015625 7.9166666015625H23.5144166015625C26.84775 7.9166666015625 29.7644166015625 10 30.1810833984375 13.3333333984375C36.4310833984375 45.416666796875 63.9310833984375 68.3333333984375 96.84775 69.1666666015625H98.09775C131.84775 69.583333203125 158.9310833984375 96.6666666015625 158.9310833984375 130.4166666015625" />
    <glyph glyph-name="phone"
      unicode="&#xEA17;"
      horiz-adv-x="200" d="M153.1 110.9A7.5 7.5 0 0 0 146.7 102.4A7.4 7.4 0 0 0 138.3 108.8A42.8 42.8 0 0 1 110.7 142.8A7.5 7.5 0 1 0 115.8 156.9A57.8 57.8 0 0 0 153.1 110.9zM187.7 117.2A7.5 7.5 0 0 0 181.5 108.6A7.6 7.6 0 0 0 172.9 114.9A75.5 75.5 0 0 1 118.2 177.7A7.5 7.5 0 0 0 121.8 192.3A90.7 90.7 0 0 0 187.7 117.2zM141 3.6A81.4 81.4 0 0 0 104.2 17.8A258.8 258.8 0 0 0 61.7 51.7L57.4 56A254.6 254.6 0 0 0 23.8 99A83.5 83.5 0 0 0 9.7 136.2A59.1 59.1 0 0 0 22.3 167C25 170.9 35.6 183.9 44.4 183.9C48 183.9 51.9 181.6 57 176.2A133.7 133.7 0 0 0 68.7 161.5A157.3 157.3 0 0 0 78.7 145.3A30 30 0 0 0 83.4 131.9A11.8 11.8 0 0 0 77.5 121.9A50 50 0 0 0 68.9 117.5A37.8 37.8 0 0 1 62.5 114.2A51.5 51.5 0 0 1 69.8 100.5A172.5 172.5 0 0 1 86 80.5A171.5 171.5 0 0 1 106 64.1A55.6 55.6 0 0 1 119.6 56.7A43.8 43.8 0 0 1 122.8 63.2A50.7 50.7 0 0 0 127.2 71.9A11.7 11.7 0 0 0 137.2000000000001 77.9A29.3 29.3 0 0 0 150.5000000000001 73.1A141.6 141.6 0 0 0 166.5000000000001 63.1A124 124 0 0 0 181.1000000000001 51.3A19.3 19.3 0 0 0 188.7000000000001 38.6C188.7000000000001 29.7 175.9 19.3 171.9 16.3A57.7 57.7 0 0 0 141 3.6z" />
    <glyph glyph-name="return"
      unicode="&#xEA18;"
      horiz-adv-x="200" d="M31.7417677894737 92.8607463157895L192.1052631578948 92.8607463157895C196.4654057894737 92.8607463157895 200 96.3953405263158 200 100.7554831578947C200 105.1156257894737 196.4654057894737 108.65022 192.1052631578948 108.65022L31.4066375263158 108.65022L98.7529431578948 175.9965254210527C101.8360294736842 179.0796119473684 101.8360294736842 184.0782827894737 98.7529431578948 187.1613693157895C95.6698563157895 190.2444558421053 90.6711852631579 190.2444558421053 87.5880989473684 187.1613693157895L87.5880989473684 187.1613693157895L9.4341915789474 109.0074621052632C8.6919365789474 108.2652068421052 8.1283798947368 107.4119231578947 7.7435215789474 106.5010705263158C6.2164208421053 105.0614715789474 5.2631578947368 103.0198005263158 5.2631578947368 100.7554831578947C5.2631578947368 98.3582568421053 6.331613 96.2105810526316 8.018286 94.7626942105263C8.3804901052632 94.0702994736842 8.8524586315789 93.4203678947368 9.4341915789474 92.8386347368421L87.5880989473684 14.6847273684211C90.6711852631579 11.6016405263158 95.6698563157895 11.6016405263158 98.7529431578948 14.6847273684211C101.8360294736842 17.7678136842105 101.8360294736842 22.7664847368421 98.7529431578948 25.8495710526316L31.7417677894737 92.8607463157895z" />
    <glyph glyph-name="scan"
      unicode="&#xEA19;"
      horiz-adv-x="200" d="M172.9125 27.0875V78.125H187.5V12.5H121.875V27.0875H172.9125zM12.5 27.0875V78.125H27.0875V27.0875H78.125V12.5H12.5V27.0875zM187.5 172.9125V121.875H172.9125V172.9125H121.875V187.5H187.5V172.9125zM27.0875 172.9125V121.875H12.5V187.5H78.125V172.9125H27.0875zM12.5 107.2875H187.5V92.7125H12.5V107.2875z" />
    <glyph glyph-name="search"
      unicode="&#xEA1A;"
      horiz-adv-x="200" d="M195.7047619140625 15.809523828125L143.41904765625 68.241269921875A80.196825390625 80.196825390625 0 0 1 161.9174603515625 119.6126984375C161.9174603515625 164.009523828125 126.03174609375 200 81.752380859375 200C37.4793650390625 200 1.5873015625 164.009523828125 1.5873015625 119.6126984375S37.4793650390625 39.222222265625 81.752380859375 39.222222265625A79.6730158203125 79.6730158203125 0 0 1 130.577777734375 55.8507935546875L183.1111111328125 3.174603125A8.8888888671875 8.8888888671875 0 0 1 195.7079365234375 3.174603125A8.952380859375 8.952380859375 0 0 1 195.7079365234375 15.80634921875zM109.4825396484375 53.777777734375A70.6920634765625 70.6920634765625 0 0 0 81.752380859375 48.16825390625A70.6666666015625 70.6666666015625 0 0 0 41.9238095703125 60.365079296875A71.847619140625 71.847619140625 0 0 0 22.6698412109375 79.6730158203125A71.174603125 71.174603125 0 0 0 10.5079365234375 119.609523828125C10.5079365234375 124.4666666015625 10.99365078125 129.3111111328125 11.95555546875 134.022222265625A71.1365080078125 71.1365080078125 0 0 0 22.6698412109375 159.5492064453125A71.958730078125 71.958730078125 0 0 0 41.9238095703125 178.8603173828125A70.6920634765625 70.6920634765625 0 0 0 81.752380859375 191.0571427734375C86.59365078125 191.0571427734375 91.4253966796875 190.56825390625 96.1206349609375 189.603174609375A70.6507935546875 70.6507935546875 0 0 0 121.58095234375 178.8603173828125A71.847619140625 71.847619140625 0 0 0 140.834920703125 159.5492064453125A71.174603125 71.174603125 0 0 0 152.996825390625 119.6126984375A71.1492064453125 71.1492064453125 0 0 0 140.834920703125 79.6761904296875A71.958730078125 71.958730078125 0 0 0 121.58095234375 60.365079296875C117.771428515625 57.784126953125 113.7015873046875 55.571428515625 109.4825396484375 53.777777734375z" />
    <glyph glyph-name="selected"
      unicode="&#xEA1B;"
      horiz-adv-x="200" d="M100 7.1428571428571C48.7164160714286 7.1428571428571 7.1428571428571 48.7164164285714 7.1428571428571 100C7.1428571428571 151.2835839285714 48.7164160714286 192.8571428571429 100 192.8571428571429C151.2835835714286 192.8571428571429 192.8571428571429 151.2835839285714 192.8571428571429 100C192.8571428571429 48.7164164285714 151.2835835714286 7.1428571428571 100 7.1428571428571zM100 78.5714285714286C111.8346728571429 78.5714285714286 121.4285714285714 88.1653271428571 121.4285714285714 100C121.4285714285714 111.8346728571429 111.8346728571429 121.4285714285714 100 121.4285714285714C88.1653271428572 121.4285714285714 78.5714285714286 111.8346728571429 78.5714285714286 100C78.5714285714286 88.1653271428571 88.1653271428572 78.5714285714286 100 78.5714285714286z" />
    <glyph glyph-name="service"
      unicode="&#xEA1C;"
      horiz-adv-x="200" d="M165.3864783203125 126.0869564453125A71.2173912109375 71.2173912109375 0 0 1 31.734304296875 126.0869564453125A15.652173828125 15.652173828125 0 0 1 30.4299564453125 128.1739130859375A69.5652173828125 69.5652173828125 0 0 0 167.3864783203125 128.1739130859375A9.73913046875 9.73913046875 0 0 1 165.3864783203125 126.0869564453125zM179.6473478515625 134.7826087890625A82.7826087890625 82.7826087890625 0 0 1 17.3864783203125 131.73913046875A15.4782609375 15.4782609375 0 0 1 4.343 116.608695703125V85.8260869140625A15.5652173828125 15.5652173828125 0 0 1 19.8212609375 70.26086953125A15.3043478515625 15.3043478515625 0 0 1 31.734304296875 76A71.391304296875 71.391304296875 0 0 1 70.08213046875 35.652173828125A3.652173828125 3.652173828125 0 0 0 70.8647390625 36.869565234375C70.8647390625 37.3043478515625 71.386478125 37.5652173828125 71.734304296875 37.5652173828125H72.4299564453125A69.5652173828125 69.5652173828125 0 0 0 50.4299564453125 77.73913046875A18.869565234375 18.869565234375 0 0 0 64.60386953125 98.26086953125C77.995173828125 100.6956521484375 91.2995216796875 103.5652173828125 104.7777826171875 106A23.3043478515625 23.3043478515625 0 0 1 122.690826171875 120.0869564453125A37.2173912109375 37.2173912109375 0 0 1 125.2995216796875 130.4347826171875A1.5652173828125 1.5652173828125 0 0 0 126.5169130859375 131.73913046875A1.652173828125 1.652173828125 0 0 0 128.2560435546875 131.130434765625A96.869565234375 96.869565234375 0 0 0 145.6473478515625 88.5217390625C147.2995216796875 68 146.429956640625 53.7391302734375 130.7777826171875 39.5652173828125A1.0434783203125 1.0434783203125 0 0 1 130.7777826171875 38.6956521484375A1.3043478515625 1.3043478515625 0 0 1 131.3864783203125 37.652173828125H132.951695703125A71.5652173828125 71.5652173828125 0 0 1 166.60386953125 78.5217390625A16.26086953125 16.26086953125 0 0 1 176.5169130859375 71.9130435546875C169.8212609375 41.6521740234375 142.951695703125 22.7826087890625 109.5603912109375 19.73913046875A13.391304296875 13.391304296875 0 1 1 109.5603912109375 11.0434783203125C148.1690869140625 14.1739130859375 179.12560859375 37.130434765625 185.5603912109375 72.869565234375A15.8260869140625 15.8260869140625 0 0 1 195.6473478515625 88.1739130859375V119.3043478515625A16 16 0 0 1 190.951695703125 130.4347826171875A15.8260869140625 15.8260869140625 0 0 1 179.6473478515625 135.0434783203125z" />
    <glyph glyph-name="un-selected"
      unicode="&#xEA1D;"
      horiz-adv-x="200" d="M7.1428571428571 100A92.8571428571429 92.8571428571429 0 0 1 192.8571428571429 100A92.8571428571429 92.8571428571429 0 0 1 7.1428571428571 100" />
    <glyph glyph-name="warm"
      unicode="&#xEA1E;"
      horiz-adv-x="200" d="M100 177.6025853515625C110.480694140625 177.6025853515625 120.642604296875 175.5521755859375 130.2033220703125 171.5083171875C139.4430576171875 167.6001669921875 147.743230078125 162.0033615234375 154.8731958984375 154.873395703125C162.00336171875 147.7432298828125 167.6001669921875 139.443057421875 171.5081173828125 130.203521875C175.5519755859375 120.6426041015625 177.602385546875 110.48089375 177.602385546875 100.0001998046875S175.55197578125 79.3575955078125 171.5081173828125 69.796877734375C167.5999671875 60.5573421875 162.00316171875 52.2569697265625 154.8731958984375 45.12700390625C147.743030078125 37.9968380859375 139.4428576171875 32.4000328125 130.2033220703125 28.492082421875C120.642404296875 24.44822421875 110.4806939453125 22.3978142578125 100 22.3978142578125S79.357395703125 24.4482240234375 69.7966779296875 28.492082421875C60.5569423828125 32.4002326171875 52.256769921875 37.9970380859375 45.1268041015625 45.12700390625C37.99663828125 52.2571697265625 32.3998330078125 60.5573421875 28.4918826171875 69.796877734375C24.4480244140625 79.3577955078125 22.397614453125 89.519505859375 22.397614453125 100.0001998046875S24.44802421875 120.6428041015625 28.4918826171875 130.203521875C32.4000328125 139.443257421875 37.99683828125 147.7434298828125 45.1268041015625 154.873395703125C52.256969921875 162.0035615234375 60.5571423828125 167.600366796875 69.7966779296875 171.5083171875C79.357395703125 175.5521755859375 89.519305859375 177.6025853515625 100 177.6025853515625M100 187.5958099609375C51.6222001953125 187.5958099609375 12.4041900390625 148.3777998046875 12.4041900390625 100S51.6222001953125 12.4041900390625 100 12.4041900390625S187.5958099609375 51.6222001953125 187.5958099609375 100S148.3777998046875 187.5958099609375 100 187.5958099609375L100 187.5958099609375zM113.628559765625 151.8636365234375L110.13093125 85.1290826171875C110.0367951171875 82.05116953125 108.9633228515625 79.4847095703125 106.91271328125 77.434299609375C104.8601048828125 75.38149140625 102.36579609375 74.3563865234375 99.427987890625 74.3563865234375C96.4901796875 74.3563865234375 94.0176560546875 75.3357224609375 92.0132150390625 77.29439453125C90.0063755859375 79.2530666015625 88.9111181640625 81.863096875 88.725444140625 85.1290826171875L85.0879103515625 151.8636365234375C84.9000376953125 155.407233984375 86.2771041015625 158.67102109375 89.215112109375 161.6569966796875C92.1531201171875 164.6409736328125 95.5328287109375 166.133961328125 99.35823515625 166.133961328125C103.18144296875 166.133961328125 106.5631501953125 164.6649572265625 109.501358203125 161.72694921875C112.4391662109375 158.788941015625 113.8144337890625 155.5011701171875 113.628559765625 151.8636365234375zM99.35823515625 61.3452080078125C103.0873068359375 61.3452080078125 106.3055248046875 60.0161091796875 109.011490234375 57.357911328125C111.715856640625 54.699713671875 113.0689392578125 51.50607890625 113.0689392578125 47.774408984375C113.0689392578125 44.0451375 111.715856640625 40.8033353515625 109.011490234375 38.0512013671875C106.3055248046875 35.301066015625 103.0873068359375 33.923999609375 99.35823515625 33.923999609375C95.6269650390625 33.923999609375 92.43293046875 35.27728203125 89.7747328125 37.981248828125C87.11653515625 40.6876138671875 85.7874361328125 43.9272173828125 85.7874361328125 47.7046564453125C85.7874361328125 51.4818955078125 87.1165349609375 54.699913671875 89.7747328125 57.358111328125C92.43293046875 60.0159091796875 95.6267650390625 61.3452080078125 99.35823515625 61.3452080078125z" />
    <glyph glyph-name="zoomin"
      unicode="&#xEA1F;"
      horiz-adv-x="200" d="M172.72727265625 196.363636328125H27.27272734375A23.72727265625 23.72727265625 0 0 1 3.636363671875 172.72727265625V27.27272734375A23.72727265625 23.72727265625 0 0 1 27.27272734375 3.636363671875H172.72727265625A23.72727265625 23.72727265625 0 0 1 196.363636328125 27.27272734375V172.72727265625A23.72727265625 23.72727265625 0 0 1 172.72727265625 196.363636328125zM185.4545455078125 27.27272734375A12.72727265625 12.72727265625 0 0 0 172.72727265625 14.5454544921875H27.27272734375A12.72727265625 12.72727265625 0 0 0 14.5454544921875 27.27272734375V172.72727265625A12.72727265625 12.72727265625 0 0 0 27.27272734375 185.4545455078125H172.72727265625A12.72727265625 12.72727265625 0 0 0 185.4545455078125 172.72727265625zM170.4545455078125 121.363636328125H129.0909091796875L165.4545455078125 157.72727265625A5.363636328125 5.363636328125 0 0 1 157.8181818359375 165.363636328125L121.4545455078125 129V170.4545455078125A5.4545455078125 5.4545455078125 0 0 1 110.5454544921875 170.4545455078125V115.9090908203125A5.363636328125 5.363636328125 0 0 1 110.5454544921875 113.8181818359375A5.0909091796875 5.0909091796875 0 0 1 113.4545455078125 110.9090908203125A5.363636328125 5.363636328125 0 0 1 115.5454544921875 110.9090908203125H170.0909091796875A5.4545455078125 5.4545455078125 0 0 1 170.0909091796875 121.8181818359375zM86.1818181640625 89.0909091796875A5.363636328125 5.363636328125 0 0 1 84.0909091796875 89.0909091796875H29.5454544921875A5.4545455078125 5.4545455078125 0 0 1 29.5454544921875 78.1818181640625H70.9090908203125L34.5454544921875 41.8181818359375A5.363636328125 5.363636328125 0 1 1 42.1818181640625 34.1818181640625L78.5454544921875 70.5454544921875V29.1818181640625A5.4545455078125 5.4545455078125 0 0 1 89.4545455078125 29.1818181640625V83.72727265625A5.363636328125 5.363636328125 0 0 1 89.4545455078125 85.8181818359375A5.0909091796875 5.0909091796875 0 0 1 86.1818181640625 89.0909091796875z" />
    <glyph glyph-name="zoomout"
      unicode="&#xEA20;"
      horiz-adv-x="200" d="M172.72727265625 196.363636328125H27.27272734375A23.72727265625 23.72727265625 0 0 1 3.636363671875 172.72727265625V27.27272734375A23.72727265625 23.72727265625 0 0 1 27.27272734375 3.636363671875H172.72727265625A23.72727265625 23.72727265625 0 0 1 196.363636328125 27.27272734375V172.72727265625A23.72727265625 23.72727265625 0 0 1 172.72727265625 196.363636328125zM185.4545455078125 27.27272734375A12.72727265625 12.72727265625 0 0 0 172.72727265625 14.5454544921875H27.27272734375A12.72727265625 12.72727265625 0 0 0 14.5454544921875 27.27272734375V172.72727265625A12.72727265625 12.72727265625 0 0 0 27.27272734375 185.4545455078125H172.72727265625A12.72727265625 12.72727265625 0 0 0 185.4545455078125 172.72727265625zM168 170.9090908203125A5.363636328125 5.363636328125 0 0 1 165.9090908203125 171.363636328125H111.363636328125A5.4545455078125 5.4545455078125 0 0 1 111.363636328125 160.4545455078125H152.72727265625L116.363636328125 124.0909091796875A5.363636328125 5.363636328125 0 1 1 124 116.4545455078125L160.363636328125 152.8181818359375V111.363636328125A5.4545455078125 5.4545455078125 0 0 1 171.27272734375 111.363636328125V165.9090908203125A5.363636328125 5.363636328125 0 0 1 170.8181818359375 168A5.0909091796875 5.0909091796875 0 0 1 168 170.9090908203125zM88.636363671875 39.5454544921875H47.27272734375L83.636363671875 75.9090908203125A5.363636328125 5.363636328125 0 0 1 76 83.5454544921875L39.636363671875 47.1818181640625V88.636363671875A5.4545455078125 5.4545455078125 0 1 1 28.72727265625 88.636363671875V34.0909091796875A5.363636328125 5.363636328125 0 0 1 29.1818181640625 32A5.0909091796875 5.0909091796875 0 0 1 32.0909091796875 29.0909091796875A5.363636328125 5.363636328125 0 0 1 34.1818181640625 28.636363671875H88.72727265625A5.4545455078125 5.4545455078125 0 1 1 88.72727265625 39.5454544921875z" />
  </font>
</defs>
</svg>
