<svg xmlns="http://www.w3.org/2000/svg" xlink="http://www.w3.org/1999/xlink" width="0" height="0" style="display:none;"><symbol id="iconfont-add"><defs><style type="text/css"/></defs><path d="M896 544H128c-17.6 0-32-14.4-32-32s14.4-32 32-32h768c17.6 0 32 14.4 32 32s-14.4 32-32 32z" p-id="1932"/><path d="M512 928c-17.6 0-32-14.4-32-32V128c0-17.6 14.4-32 32-32s32 14.4 32 32v768c0 17.6-14.4 32-32 32z" p-id="1933"/></symbol><symbol id="iconfont-app-close"><defs><style type="text/css"/></defs><path d="M220.98888 538.410733a36.737198 36.737198 0 0 1 0-51.191177l481.799314-476.981321a36.134949 36.134949 0 0 1 49.986678 0l49.986679 49.986679a36.737198 36.737198 0 0 1 0 51.191177L422.140093 487.219556a36.737198 36.737198 0 0 0 0 51.191177l375.803465 374.598966a36.737198 36.737198 0 0 1 0 51.191177l-50.588928 51.191177a35.532699 35.532699 0 0 1-46.373184 0z" fill="#D1D1D1" p-id="4898"/></symbol><symbol id="iconfont-arrow-down">
    <!-- Generator: Sketch 47.1 (45422) - http://www.bohemiancoding.com/sketch -->
    <title>&#x4E0B;&#x62C9;</title>
    <desc>Created with Sketch.</desc>
    <defs/>
    <g id="&#x6B63;&#x7A3F;" stroke="none" stroke-width="1" fill="none" fill-rule="evenodd">
        <g id="&#x4E0B;&#x62C9;" fill="#D4D5D9">
            <polygon id="&#x7BAD;&#x5934;&#xFF0D;&#x53F3;-copy-4" transform="translate(14.500000, 14.000000) scale(1, -1) rotate(-90.000000) translate(-14.500000, -14.000000) " points="7 3.20001221 9 1 22 14 9 27 7 25 18 14"/>
        </g>
    </g>
</symbol><symbol id="iconfont-arrow-left"><defs><style type="text/css"/></defs><path d="M210.4 511.1 641.3 80.2c22.8-22.8 59.8-22.8 82.6 0 22.8 22.8 22.8 59.8 0 82.6L375.7 511.1l348.3 348.3c22.8 22.8 22.8 59.8 0 82.6-22.8 22.8-59.8 22.8-82.6 0L210.4 511.1 210.4 511.1zM210.4 511.1" p-id="2431"/></symbol><symbol id="iconfont-arrow-right">
    <!-- Generator: Sketch 47.1 (45422) - http://www.bohemiancoding.com/sketch -->
    <title>&#x5C0F;&#x524D;&#x8FDB;</title>
    <desc>Created with Sketch.</desc>
    <defs/>
    <g id="&#x6B63;&#x7A3F;" stroke="none" stroke-width="1" fill="none" fill-rule="evenodd">
        <g id="&#x5C0F;&#x524D;&#x8FDB;" fill="#D4D5D9">
            <polygon id="&#x7BAD;&#x5934;&#xFF0D;&#x53F3;-copy-4" points="7 3.20001221 9 1 22 14 9 27 7 25 18 14"/>
        </g>
    </g>
</symbol><symbol id="iconfont-arrow-up">
    <!-- Generator: Sketch 47.1 (45422) - http://www.bohemiancoding.com/sketch -->
    <title>&#x6536;&#x8D77;</title>
    <desc>Created with Sketch.</desc>
    <defs/>
    <g id="&#x6B63;&#x7A3F;" stroke="none" stroke-width="1" fill="none" fill-rule="evenodd">
        <g id="&#x6536;&#x8D77;" fill="#D4D5D9">
            <polygon id="&#x7BAD;&#x5934;&#xFF0D;&#x53F3;-copy-4" transform="translate(14.500000, 14.000000) rotate(-90.000000) translate(-14.500000, -14.000000) " points="7 3.20001221 9 1 22 14 9 27 7 25 18 14"/>
        </g>
    </g>
</symbol><symbol id="iconfont-backspace"><defs><style type="text/css"/></defs><path d="M881.921097 191.942567 360.226295 191.942567c-30.42801 0-58.802244 14.065344-77.812203 38.58069L64.290235 511.745197l218.102367 281.22194c19.031449 24.51637 47.38317 38.58069 77.833693 38.58069l521.694803 0c42.73429 0 77.509305-37.644365 77.509305-83.921341L959.430402 275.875165C959.430402 229.597165 924.655388 191.942567 881.921097 191.942567zM892.994294 747.626485c0 8.343015-5.060249 15.392572-11.073196 15.392572L360.226295 763.019057c-10.143011 0-19.614733-4.684696-25.952068-12.860912L149.367913 511.745197l184.906314-238.413971c6.357801-8.176217 15.809057-12.859889 25.952068-12.859889l521.694803 0c6.011924 0 11.073196 7.049556 11.073196 15.403828L892.994294 747.626485z" p-id="3696"/><path d="M755.925499 339.03874c-12.975523-13.384845-33.996279-13.384845-46.972824 0L588.493162 463.292672 468.033649 339.03874c-12.975523-13.384845-33.997302-13.384845-46.972824 0-12.975523 13.373589-12.975523 35.078936 0 48.452525l120.459512 124.253932L421.061848 635.999129c-12.975523 13.373589-12.975523 35.078936 0 48.452525 6.487761 6.692423 14.987343 10.038634 23.485901 10.038634 8.499581 0 16.998139-3.346211 23.485901-10.038634l120.459512-124.253932L708.952674 684.451654c6.487761 6.692423 14.987343 10.038634 23.485901 10.038634 8.499581 0 16.998139-3.346211 23.485901-10.038634 12.975523-13.373589 12.975523-35.078936 0-48.452525L635.465986 511.745197l120.459512-124.253932C768.901021 374.117676 768.901021 352.412328 755.925499 339.03874z" p-id="3697"/></symbol><symbol id="iconfont-bell-active"><defs><style type="text/css"/></defs><path d="M829.924891 806.410879L794.598658 706.575871a35.326234 35.326234 0 0 1 0-12.79936v-281.585921a291.825409 291.825409 0 1 0-583.650818 0v281.585921a35.326234 35.326234 0 0 1 0 12.79936l-33.278336 99.835008z m-409.579521 81.915905a87.547623 87.547623 0 0 0 160.759962 0zM440.312372 43.569022a66.556672 66.556672 0 0 1 124.921754 0 375.277236 375.277236 0 0 1 311.280436 368.621568v274.930254l51.19744 147.448628a40.957952 40.957952 0 0 1-38.910054 53.757312h-220.660967a168.951552 168.951552 0 0 1-330.735464 0H118.792448A40.957952 40.957952 0 0 1 77.834496 834.569472l51.19744-147.448628V412.19059A375.277236 375.277236 0 0 1 440.312372 43.569022z" fill="#687390" p-id="5097"/><path d="M768.999938 281.637118m-179.191041 0a179.19104 179.19104 0 1 0 358.382081 0 179.19104 179.19104 0 1 0-358.382081 0Z" fill="#FC7C6B" p-id="5098"/></symbol><symbol id="iconfont-bell"><defs><style type="text/css"/></defs><path d="M839.302732 806.814266L803.958827 706.929318a35.343905 35.343905 0 0 1 0-12.805762v-281.726777a291.971387 291.971387 0 1 0-583.942774 0v281.726777a35.343905 35.343905 0 0 1 0 12.805762l-33.294983 99.884948z m-409.784403 81.956881a87.591416 87.591416 0 0 0 160.840378 0zM449.495319 43.590816a66.589965 66.589965 0 0 1 124.984243 0 375.464959 375.464959 0 0 1 311.436146 368.805963v275.06778l51.22305 147.522385a40.97844 40.97844 0 0 1-38.929518 53.784203h-220.771347a169.036066 169.036066 0 0 1-330.900906 0H127.814562A40.97844 40.97844 0 0 1 86.836122 834.986944l51.22305-147.522385V412.396779A375.464959 375.464959 0 0 1 449.495319 43.590816z" fill="#687390" p-id="4979"/></symbol><symbol id="iconfont-calendar">
    <!-- Generator: Sketch 55.2 (78181) - https://sketchapp.com -->
    <title>calendar</title>
    <desc>Created with Sketch.</desc>
    <g id="20190808" stroke="none" stroke-width="1" fill="none" fill-rule="evenodd">
        <g id="15&#x586B;&#x5199;&#x63D0;&#x524D;&#x8FD8;&#x6B3E;&#x4FE1;&#x606F;" transform="translate(-336.000000, -389.000000)" fill="#CCCCCC">
            <g id="calendar-copy" transform="translate(336.000000, 389.000000)">
                <path d="M18.3333333,18 L1.66666667,18 C0.746192084,18 0,17.3284271 0,16.5 L0,3 C0,2.17157288 0.746192084,1.5 1.66666667,1.5 L3.33333333,1.5 L3.33333333,3 L1.66666667,3 L1.66666667,16.5 L18.3333333,16.5 L18.3333333,3 L16.6666667,3 L16.6666667,1.5 L18.3333333,1.5 C19.2538079,1.5 20,2.17157288 20,3 L20,16.5 C20,17.3284271 19.2538079,18 18.3333333,18 L18.3333333,18 Z M14.1666667,12.75 L15.8333333,12.75 C16.2935706,12.75 16.6666667,13.0857864 16.6666667,13.5 C16.6666667,13.9142136 16.2935706,14.25 15.8333333,14.25 L14.1666667,14.25 C13.7064294,14.25 13.3333333,13.9142136 13.3333333,13.5 C13.3333333,13.0857864 13.7064294,12.75 14.1666667,12.75 L14.1666667,12.75 Z M14.1666667,9.75 L15.8333333,9.75 C16.2935706,9.75 16.6666667,10.0857864 16.6666667,10.5 C16.6666667,10.9142136 16.2935706,11.25 15.8333333,11.25 L14.1666667,11.25 C13.7064294,11.25 13.3333333,10.9142136 13.3333333,10.5 C13.3333333,10.0857864 13.7064294,9.75 14.1666667,9.75 L14.1666667,9.75 Z M15.8333333,8.25 L14.1666667,8.25 C13.7064294,8.25 13.3333333,7.91421356 13.3333333,7.5 C13.3333333,7.08578644 13.7064294,6.75 14.1666667,6.75 L15.8333333,6.75 C16.2935706,6.75 16.6666667,7.08578644 16.6666667,7.5 C16.6666667,7.91421356 16.2935706,8.25 15.8333333,8.25 L15.8333333,8.25 Z M15,4.5 C14.5397627,4.5 14.1666667,4.16421356 14.1666667,3.75 L14.1666667,0.75 C14.1666667,0.335786438 14.5397627,0 15,0 C15.4602373,0 15.8333333,0.335786438 15.8333333,0.75 L15.8333333,3.75 C15.8333333,4.16421356 15.4602373,4.5 15,4.5 L15,4.5 Z M11.6666667,1.5 L13.3333333,1.5 L13.3333333,3 L11.6666667,3 L11.6666667,1.5 L11.6666667,1.5 Z M9.16666667,12.75 L10.8333333,12.75 C11.2935706,12.75 11.6666667,13.0857864 11.6666667,13.5 C11.6666667,13.9142136 11.2935706,14.25 10.8333333,14.25 L9.16666667,14.25 C8.70642938,14.25 8.33333333,13.9142136 8.33333333,13.5 C8.33333333,13.0857864 8.70642938,12.75 9.16666667,12.75 L9.16666667,12.75 Z M9.16666667,9.75 L10.8333333,9.75 C11.2935706,9.75 11.6666667,10.0857864 11.6666667,10.5 C11.6666667,10.9142136 11.2935706,11.25 10.8333333,11.25 L9.16666667,11.25 C8.70642938,11.25 8.33333333,10.9142136 8.33333333,10.5 C8.33333333,10.0857864 8.70642938,9.75 9.16666667,9.75 L9.16666667,9.75 Z M10.8333333,8.25 L9.16666667,8.25 C8.70642938,8.25 8.33333333,7.91421356 8.33333333,7.5 C8.33333333,7.08578644 8.70642938,6.75 9.16666667,6.75 L10.8333333,6.75 C11.2935706,6.75 11.6666667,7.08578644 11.6666667,7.5 C11.6666667,7.91421356 11.2935706,8.25 10.8333333,8.25 L10.8333333,8.25 Z M10,4.5 C9.53976271,4.5 9.16666667,4.16421356 9.16666667,3.75 L9.16666667,0.75 C9.16666667,0.335786438 9.53976271,0 10,0 C10.4602373,0 10.8333333,0.335786438 10.8333333,0.75 L10.8333333,3.75 C10.8333333,4.16421356 10.4602373,4.5 10,4.5 L10,4.5 Z M6.66666667,1.5 L8.33333333,1.5 L8.33333333,3 L6.66666667,3 L6.66666667,1.5 L6.66666667,1.5 Z M4.16666667,12.75 L5.83333333,12.75 C6.29357062,12.75 6.66666667,13.0857864 6.66666667,13.5 C6.66666667,13.9142136 6.29357062,14.25 5.83333333,14.25 L4.16666667,14.25 C3.70642938,14.25 3.33333333,13.9142136 3.33333333,13.5 C3.33333333,13.0857864 3.70642938,12.75 4.16666667,12.75 L4.16666667,12.75 Z M4.16666667,9.75 L5.83333333,9.75 C6.29357062,9.75 6.66666667,10.0857864 6.66666667,10.5 C6.66666667,10.9142136 6.29357062,11.25 5.83333333,11.25 L4.16666667,11.25 C3.70642938,11.25 3.33333333,10.9142136 3.33333333,10.5 C3.33333333,10.0857864 3.70642938,9.75 4.16666667,9.75 L4.16666667,9.75 Z M5.83333333,8.25 L4.16666667,8.25 C3.70642938,8.25 3.33333333,7.91421356 3.33333333,7.5 C3.33333333,7.08578644 3.70642938,6.75 4.16666667,6.75 L5.83333333,6.75 C6.29357062,6.75 6.66666667,7.08578644 6.66666667,7.5 C6.66666667,7.91421356 6.29357062,8.25 5.83333333,8.25 L5.83333333,8.25 Z M5,4.5 C4.53976271,4.5 4.16666667,4.16421356 4.16666667,3.75 L4.16666667,0.75 C4.16666667,0.335786438 4.53976271,0 5,0 C5.46023729,0 5.83333333,0.335786438 5.83333333,0.75 L5.83333333,3.75 C5.83333333,4.16421356 5.46023729,4.5 5,4.5 L5,4.5 Z" id="calendar"/>
            </g>
        </g>
    </g>
</symbol><symbol id="iconfont-camera">
    <!-- Generator: Sketch 47.1 (45422) - http://www.bohemiancoding.com/sketch -->
    <title>&#x5C0F;&#x62CD;&#x6444;</title>
    <desc>Created with Sketch.</desc>
    <defs/>
    <g id="&#x6B63;&#x7A3F;" stroke="none" stroke-width="1" fill="none" fill-rule="evenodd">
        <g id="&#x5C0F;&#x62CD;&#x6444;" fill="#3DA5FE">
            <path d="M1.5978333,28.9887442 C0.713231862,28.9887442 0,28.262611 0,27.3668803 L0,9.49475339 C0,8.59974505 0.716206498,7.87288954 1.59969199,7.87288954 L6.40030801,7.87288954 C7.29005337,7.87288954 8.11727897,7.15853018 8.26194992,6.27732325 L8.53805008,4.59556628 C8.68195724,3.71901163 9.51458552,3 10.3960714,3 L21.6039286,3 C22.4859018,3 23.317279,3.71435936 23.4619499,4.59556628 L23.7380501,6.27732325 C23.8819572,7.1538779 24.7162065,7.87288954 25.599692,7.87288954 L30.400308,7.87288954 C31.2900534,7.87288954 32,8.59902272 32,9.49475339 L32,18.3212117 L32,29 L1.5978333,28.9887442 Z M16,23.3037064 C19.0927946,23.3037064 21.6,20.7584283 21.6,17.6186686 C21.6,14.4789089 19.0927946,11.9336308 16,11.9336308 C12.9072054,11.9336308 10.4,14.4789089 10.4,17.6186686 C10.4,20.7584283 12.9072054,23.3037064 16,23.3037064 Z" id="Combined-Shape"/>
        </g>
    </g>
</symbol><symbol id="iconfont-can-see-pass">
<title>&#x53EF;&#x89C6; copy@2x</title>
<desc>Created with Sketch.</desc>
<g id="icon">
	<g id="&#x53EF;&#x89C6;-copy">
		<g id="&#x641C;&#x7D22;">
		</g>
		<path id="Page-1" fill="#3DA5FE" d="M-289,401.7c-3.3,0-5.9-2.3-6.7-5.2c0.8-2.9,3.4-5.2,6.7-5.2s5.9,2.3,6.7,5.2
			C-283.1,399.4-285.7,401.7-289,401.7 M-289,390c-4.1,0-7,2.9-8,6.5c1,3.6,3.9,6.5,8,6.5s7-2.9,8-6.5C-282,392.9-284.9,390-289,390
			 M-289,393.2c-1.8,0-3.3,1.5-3.3,3.3c0,1.8,1.5,3.3,3.3,3.3c1.8,0,3.3-1.5,3.3-3.3C-285.7,394.7-287.2,393.2-289,393.2"/>
	</g>
</g>
</symbol><symbol id="iconfont-cant-see-pass">
<title>&#x9690;&#x79D8; copy@2x</title>
<desc>Created with Sketch.</desc>
<g id="icon">
	<g id="&#x9690;&#x79D8;-copy">
		<g id="&#x641C;&#x7D22;">
		</g>
		<path id="Fill-1" fill="#3DA5FE" d="M-281.1,395.1c0.2-0.3,0.2-0.7-0.1-1c-0.3-0.2-0.7-0.2-0.9,0.1c0,0-2.5,3.2-6.8,3.2
			c-4.3,0-6.8-3.2-6.8-3.2c-0.2-0.3-0.7-0.4-0.9-0.1c-0.3,0.2-0.3,0.7-0.1,1c0,0.1,0.4,0.5,1.1,1.1l-1.2,1.5l1,0.9l1.2-1.6
			c0.5,0.3,1.1,0.7,1.8,1l-0.7,2l1.3,0.5l0.7-2c0.6,0.2,1.3,0.3,2,0.3v2.1h1.3v-2.1c0.7,0,1.4-0.2,2-0.3l0.7,2l1.3-0.5l-0.7-1.9
			c0.6-0.3,1.2-0.6,1.7-0.9l1.2,1.6l1-0.9l-1.2-1.5C-281.6,395.7-281.2,395.2-281.1,395.1"/>
	</g>
</g>
</symbol><symbol id="iconfont-checked">
    <!-- Generator: Sketch 47.1 (45422) - http://www.bohemiancoding.com/sketch -->
    <title>Combined Shape</title>
    <desc>Created with Sketch.</desc>
    <defs/>
    <g id="Page-2" stroke="none" stroke-width="1" fill="none" fill-rule="evenodd">
        <g id="&#x52FE;&#x9009;" fill="#3DA5FE">
            <path d="M11.2905804,15.3291045 L7.46041868,11.4989428 C7.0373507,11.0758748 6.35142197,11.0758748 5.92835399,11.4989428 C5.505286,11.9220108 5.505286,12.6079395 5.92835399,13.0310075 L10.5245481,17.6272016 C10.7360821,17.8387356 11.0133312,17.9445026 11.2905804,17.9445026 C11.5678296,17.9445026 11.8450788,17.8387356 12.0566128,17.6272016 L20.7383127,8.94550165 C21.1613807,8.52243366 21.1613807,7.83650494 20.7383127,7.41343695 C20.3152447,6.99036897 19.629316,6.99036897 19.206248,7.41343695 L11.2905804,15.3291045 Z M13,26 C5.82029825,26 0,20.1797017 0,13 C0,5.82029825 5.82029825,0 13,0 C20.1797017,0 26,5.82029825 26,13 C26,20.1797017 20.1797017,26 13,26 Z" id="Combined-Shape"/>
        </g>
    </g>
</symbol><symbol id="iconfont-close">
    <!-- Generator: Sketch 47.1 (45422) - http://www.bohemiancoding.com/sketch -->
    <title>&#x5C0F;&#x5173;&#x95ED;</title>
    <desc>Created with Sketch.</desc>
    <defs/>
    <g id="&#x6B63;&#x7A3F;" stroke="none" stroke-width="1" fill="none" fill-rule="evenodd">
        <g id="&#x5C0F;&#x5173;&#x95ED;" fill="#D4D5D9">
            <path d="M14,12.5523785 L1.7474337,0.299812225 C1.34768407,-0.0999374083 0.699561858,-0.0999374083 0.299812225,0.299812225 L0.299812225,0.299812225 L0.299812225,0.299812225 C-0.0999374083,0.699561858 -0.0999374083,1.34768407 0.299812225,1.7474337 L0.299812225,1.7474337 L12.5523785,14 L0.299812225,26.2525663 L0.299812225,26.2525663 C-0.0999374083,26.6523159 -0.0999374083,27.3004381 0.299812225,27.7001878 C0.699561858,28.0999374 1.34768407,28.0999374 1.7474337,27.7001878 L14,15.4476215 L26.2525663,27.7001878 C26.6523159,28.0999374 27.3004381,28.0999374 27.7001878,27.7001878 C28.0999374,27.3004381 28.0999374,26.6523159 27.7001878,26.2525663 L27.7001878,26.2525663 L15.4476215,14 L27.7001878,1.7474337 C28.0999374,1.34768407 28.0999374,0.699561858 27.7001878,0.299812225 L27.7001878,0.299812225 L27.7001878,0.299812225 C27.3004381,-0.0999374083 26.6523159,-0.0999374083 26.2525663,0.299812225 L14,12.5523785 Z" id="Combined-Shape"/>
        </g>
    </g>
</symbol><symbol id="iconfont-copy"><defs><style type="text/css"/></defs><path d="M896 810.666667l-128 0c-23.466667 0-42.666667-19.2-42.666667-42.666667 0-23.466667 19.2-42.666667 42.666667-42.666667l106.666667 0c12.8 0 21.333333-8.533333 21.333333-21.333333L896 106.666667c0-12.8-8.533333-21.333333-21.333333-21.333333L448 85.333333c-12.8 0-21.333333 8.533333-21.333333 21.333333l0 21.333333c0 23.466667-19.2 42.666667-42.666667 42.666667-23.466667 0-42.666667-19.2-42.666667-42.666667L341.333333 85.333333c0-46.933333 38.4-85.333333 85.333333-85.333333l469.333333 0c46.933333 0 85.333333 38.4 85.333333 85.333333l0 640C981.333333 772.266667 942.933333 810.666667 896 810.666667zM682.666667 298.666667l0 640c0 46.933333-38.4 85.333333-85.333333 85.333333L128 1024c-46.933333 0-85.333333-38.4-85.333333-85.333333L42.666667 298.666667c0-46.933333 38.4-85.333333 85.333333-85.333333l469.333333 0C644.266667 213.333333 682.666667 251.733333 682.666667 298.666667zM576 298.666667 149.333333 298.666667c-12.8 0-21.333333 8.533333-21.333333 21.333333l0 597.333333c0 12.8 8.533333 21.333333 21.333333 21.333333l426.666667 0c12.8 0 21.333333-8.533333 21.333333-21.333333L597.333333 320C597.333333 307.2 588.8 298.666667 576 298.666667z" p-id="1804"/></symbol><symbol id="iconfont-del">
    <!-- Generator: Sketch 47.1 (45422) - http://www.bohemiancoding.com/sketch -->
    <title>&#x5220;&#x9664;@2x</title>
    <desc>Created with Sketch.</desc>
    <defs/>
    <g id="icon" stroke="none" stroke-width="1" fill="none" fill-rule="evenodd">
        <g id="&#x5220;&#x9664;" fill="#C7C7CC">
            <g id="&#x641C;&#x7D22;">
                <path d="M7.47619371,7.06245878 L5.70305278,5.2918515 C5.31316345,4.90251928 4.68154908,4.90274507 4.2919382,5.29235595 L4.2919382,5.29235595 L4.2919382,5.29235595 C4.29177023,5.29252392 4.29160232,5.29269195 4.29143448,5.29286003 C3.90246194,5.68238917 3.90291315,6.31348946 4.29244229,6.702462 L6.06457396,8.47206147 L4.29244229,10.2416609 L4.29244229,10.2416609 C3.90291315,10.6306335 3.90246194,11.2617338 4.29143448,11.6512629 C4.29160232,11.651431 4.29177023,11.651599 4.2919382,11.651767 L4.2919382,11.651767 L4.2919382,11.651767 C4.68154908,12.0413779 5.31316345,12.0416037 5.70305278,11.6522714 L7.47619371,9.88166415 L9.24933464,11.6522714 C9.63922398,12.0416037 10.2708383,12.0413779 10.6604492,11.651767 L10.6604492,11.651767 L10.6604492,11.651767 C10.6606172,11.651599 10.6607851,11.651431 10.660953,11.6512629 C11.0499255,11.2617338 11.0494743,10.6306335 10.6599451,10.2416609 L10.6599451,10.2416609 L8.88781346,8.47206147 L10.6599451,6.702462 C11.0494743,6.31348946 11.0499255,5.68238917 10.660953,5.29286003 C10.6607851,5.29269195 10.6606172,5.29252392 10.6604492,5.29235595 L10.6604492,5.29235595 L10.6604492,5.29235595 C10.2708383,4.90274507 9.63922398,4.90251928 9.24933464,5.2918515 L7.47619371,7.06245878 Z M7.5,16 C3.35786438,16 0,12.6421356 0,8.5 C0,4.35786438 3.35786438,1 7.5,1 C11.6421356,1 15,4.35786438 15,8.5 C15,12.6421356 11.6421356,16 7.5,16 Z" id="Combined-Shape"/>
            </g>
        </g>
    </g>
</symbol><symbol id="iconfont-edit">
    <!-- Generator: Sketch 49.3 (51167) - http://www.bohemiancoding.com/sketch -->
    <title>&#x7F16;&#x8F91;</title>
    <desc>Created with Sketch.</desc>
    <defs/>
    <g id="&#x7F16;&#x8F91;" stroke="none" stroke-width="1" fill="none" fill-rule="evenodd">
        <g id="Group-2" fill="#C7C7CC">
            <g id="Group" transform="translate(0.000000, 2.000000)" fill-rule="nonzero">
                <path d="M18.0839203,0 L18.0839203,3 L4,3 C3.44771525,3 3,3.44771525 3,4 L3,26 C3,26.5522847 3.44771525,27 4,27 L26,27 C26.5522847,27 27,26.5522847 27,26 L27,10.0492217 L30,10.0492217 L30,26 C30,28.209139 28.209139,30 26,30 L4,30 C1.790861,30 2.705415e-16,28.209139 0,26 L0,4 C-2.705415e-16,1.790861 1.790861,4.4408921e-16 4,0 L18.0839203,0 Z" id="Rectangle"/>
            </g>
            <rect id="Rectangle-2" transform="translate(22.045942, 9.389087) rotate(-315.000000) translate(-22.045942, -9.389087) " x="20.5459415" y="-2.3890873" width="3" height="23.5563492" rx="1.5"/>
        </g>
    </g>
</symbol><symbol id="iconfont-home-active"><defs><style type="text/css"/></defs><path d="M966.741333 428.48L575.018667 105.514667c-33.493333-26.901333-90.410667-26.901333-123.882667 0L56.042667 431.829333c-13.376 6.741333-16.725333 23.552-10.026667 37.013334 3.349333 13.44 16.746667 20.181333 30.144 20.181333h33.472V872.533333c0 50.453333 36.821333 87.466667 87.04 87.466667h214.293333c20.074667 0 33.472-13.461333 33.472-33.642667v-154.752c0-23.552 36.821333-47.104 66.965334-47.104 30.122667 0 70.293333 23.552 70.293333 47.104v154.752c0 20.181333 13.397333 33.642667 33.493333 33.642667h217.621334c50.218667 0 83.712-33.642667 83.712-87.466667V489.024h33.472c13.397333 0 26.773333-10.090667 30.122666-23.552 3.349333-13.44 0-26.901333-13.376-36.992" p-id="2591"/></symbol><symbol id="iconfont-home"><defs><style type="text/css"/></defs><path d="M831.146667 961.237333H613.589333c-20.074667 0-33.472-13.397333-33.472-33.493333v-157.312c0-23.445333-40.170667-46.869333-70.293333-46.869333s-66.944 20.074667-66.944 46.869333v157.333333c0 20.074667-13.397333 33.472-33.493333 33.472H198.485333c-50.218667 0-87.04-36.821333-87.04-83.690666V559.530667c0-20.074667 13.397333-33.493333 33.493334-33.493334 20.053333 0 33.450667 13.418667 33.450666 33.493334v318.016c0 10.026667 6.698667 16.746667 20.096 16.746666h180.757334v-123.861333c0-66.965333 70.314667-113.834667 133.909333-113.834667 63.594667 0 137.237333 46.869333 137.237333 113.834667v123.861333h184.106667c10.048 0 16.746667 0 16.746667-20.096v-314.666666c0-20.074667 13.397333-33.493333 33.493333-33.493334 20.074667 0 33.472 13.418667 33.472 33.493334v318.016c-3.349333 50.218667-36.842667 83.690667-87.04 83.690666M77.973333 492.586667c-10.026667 0-20.074667-3.349333-26.773333-13.397334-13.397333-13.397333-10.048-36.821333 3.328-46.869333l395.029333-324.693333c36.821333-26.794667 90.368-26.794667 123.84 0l395.008 321.344c13.397333 10.048 16.746667 33.493333 3.349334 46.869333-13.397333 13.397333-33.472 16.746667-46.848 3.349333l-391.68-314.666666c-10.026667-6.698667-30.122667-6.698667-40.170667 0L98.048 485.888c-6.677333 6.698667-13.376 6.698667-20.074667 6.698667" p-id="2703"/></symbol><symbol id="iconfont-mine-active"><defs><style type="text/css"/></defs><path d="M651.989333 627.584c93.653333-52.010667 159.530667-156.053333 159.530667-270.506667A310.826667 310.826667 0 0 0 499.413333 44.949333a310.826667 310.826667 0 0 0-312.149333 312.106667c0 117.930667 62.421333 218.517333 159.530667 270.528-131.776 52.032-232.362667 166.464-260.096 312.128-3.477333 10.410667 0 20.821333 6.933333 27.733333 3.456 10.432 13.866667 13.888 24.277333 13.888h762.986667c10.410667 0 20.8-3.456 27.733333-13.866666 6.933333-6.933333 10.410667-17.344 6.933334-27.733334-27.733333-145.685333-131.776-260.117333-263.573334-312.149333" p-id="2815"/></symbol><symbol id="iconfont-mine"><defs><style type="text/css"/></defs><path d="M730.527147 672c-17.066667-10.666667-38.4-6.4-49.066667 10.666667s-6.4 38.4 10.666667 49.066666c78.933333 55.466667 136.533333 132.266667 153.6 221.866667 4.266667 17.066667 17.066667 27.733333 34.133333 27.733333h6.4c17.066667-4.266667 32-21.333333 27.733333-42.666666-21.333333-106.666667-87.466667-200.533333-183.466666-266.666667m-473.6-315.733333c0-136.533333 106.666667-243.2 243.2-243.2s243.2 108.8 243.2 243.2c0 132.266667-106.666667 238.933333-238.933334 243.2h-10.666666c-132.266667-4.266667-236.8-110.933333-236.8-243.2m556.8 0c0-172.8-138.666667-313.6-313.6-313.6-172.8 0-313.6 138.666667-313.6 313.6 0 117.333333 61.866667 219.733333 160 270.933333-132.266667 51.2-232.533333 166.4-260.266667 313.6-4.266667 17.066667 6.4 38.4 27.733333 42.666667h6.4c17.066667 0 32-10.666667 34.133334-27.733334 32-164.266667 172.8-281.6 341.333333-285.866666h6.4c172.8-2.133333 311.466667-140.8 311.466667-313.6" p-id="2927"/></symbol><symbol id="iconfont-phone"><defs><style type="text/css"/></defs><path d="M783.872 456.192a38.4 38.4 0 0 1-32.768 43.52 37.888 37.888 0 0 1-43.008-32.768 219.136 219.136 0 0 0-141.312-174.08 38.4 38.4 0 1 1 26.112-72.192 295.936 295.936 0 0 1 190.976 235.52z m177.152-32.256a38.4 38.4 0 0 1-31.744 44.032 38.912 38.912 0 0 1-44.032-32.256 386.56 386.56 0 0 0-280.064-321.536 38.4 38.4 0 0 1 18.432-74.752 464.384 464.384 0 0 1 337.408 384.512zM721.92 1005.568a416.768 416.768 0 0 1-188.416-72.704 1325.056 1325.056 0 0 1-217.6-173.568l-22.016-22.016a1303.552 1303.552 0 0 1-172.032-220.16A427.52 427.52 0 0 1 49.664 326.656 302.592 302.592 0 0 1 114.176 168.96C128 148.992 182.272 82.432 227.328 82.432c18.432 0 38.4 11.776 64.512 39.424a684.544 684.544 0 0 1 59.904 75.264 805.376 805.376 0 0 1 51.2 82.944 153.6 153.6 0 0 1 24.064 68.608 60.416 60.416 0 0 1-30.208 51.2 256 256 0 0 1-44.032 22.528 193.536 193.536 0 0 0-32.768 16.896 263.68 263.68 0 0 0 37.376 70.144 883.2 883.2 0 0 0 82.944 102.4 878.08 878.08 0 0 0 102.4 83.968 284.672 284.672 0 0 0 69.632 37.888 224.256 224.256 0 0 0 16.384-33.28 259.584 259.584 0 0 1 22.528-44.544 59.904 59.904 0 0 1 51.2-30.72 150.016 150.016 0 0 1 68.096 24.576 724.992 724.992 0 0 1 81.92 51.2 634.88 634.88 0 0 1 74.752 60.416 98.816 98.816 0 0 1 38.912 65.024c0 45.568-65.536 98.816-86.016 114.176a295.424 295.424 0 0 1-158.208 65.024z" fill="#3DA5FE" p-id="5016"/></symbol><symbol id="iconfont-return">
    <!-- Generator: Sketch 47.1 (45422) - http://www.bohemiancoding.com/sketch -->
    <title>&#x8FD4;&#x56DE;</title>
    <desc>Created with Sketch.</desc>
    <defs/>
    <g id="Page-2" stroke="none" stroke-width="1" fill="none" fill-rule="evenodd">
        <g id="&#x8FD4;&#x56DE;" fill="#7F8389">
            <path d="M6.03093588,20.3564582 L36.5,20.3564582 C37.3284271,20.3564582 38,19.6848853 38,18.8564582 C38,18.0280311 37.3284271,17.3564582 36.5,17.3564582 L5.96726113,17.3564582 L18.7630592,4.56066017 C19.3488456,3.97487373 19.3488456,3.02512627 18.7630592,2.43933983 C18.1772727,1.85355339 17.2275252,1.85355339 16.6417388,2.43933983 L16.6417388,2.43933983 L1.7924964,17.2885822 C1.65146795,17.4296107 1.54439218,17.5917346 1.4712691,17.7647966 C1.18111996,18.0383204 1,18.4262379 1,18.8564582 C1,19.3119312 1.20300647,19.7199896 1.52347434,19.9950881 C1.59229312,20.1266431 1.68196714,20.2501301 1.7924964,20.3606594 L16.6417388,35.2099018 C17.2275252,35.7956883 18.1772727,35.7956883 18.7630592,35.2099018 C19.3488456,34.6241154 19.3488456,33.6743679 18.7630592,33.0885815 L6.03093588,20.3564582 Z" id="Rectangle-69"/>
        </g>
    </g>
</symbol><symbol id="iconfont-scan"><defs><style type="text/css"/></defs><path d="M885.312 885.312V624H960V960H624v-74.688h261.312zM64 885.312V624h74.688v261.312H400V960H64v-74.688zM960 138.688V400h-74.688V138.688H624V64H960v74.688z m-821.312 0V400H64V64h336v74.688H138.688zM64 474.688h896v74.624H64V474.688z" fill="#262626" p-id="2069"/></symbol><symbol id="iconfont-search"><defs><style type="text/css"/></defs><path d="M1002.008381 943.055238l-267.702857-268.45054a410.607746 410.607746 0 0 0 94.711873-263.021714C829.017397 184.271238 645.28254 0 418.57219 0 191.894349 0 8.126984 184.271238 8.126984 411.582984s183.767365 411.599238 410.445206 411.599238a407.925841 407.925841 0 0 0 249.986032-85.138285L937.528889 1007.746032a45.511111 45.511111 0 0 0 64.495746 0 45.83619 45.83619 0 0 0 0-64.67454z m-441.457778-194.39746a361.943365 361.943365 0 0 1-141.978413 28.720762 361.813333 361.813333 0 0 1-203.922285-62.447746 367.85981 367.85981 0 0 1-98.580318-98.856635 364.413968 364.413968 0 0 1-62.268952-204.474921c0-24.868571 2.486857-49.672127 7.411809-73.793016a364.218921 364.218921 0 0 1 54.857143-130.698159 368.428698 368.428698 0 0 1 98.580318-98.872888 361.943365 361.943365 0 0 1 203.922285-62.447746c24.787302 0 49.525841 2.503111 73.565461 7.444317a361.732063 361.732063 0 0 1 130.356825 55.003429 367.85981 367.85981 0 0 1 98.580318 98.872888 364.413968 364.413968 0 0 1 62.268952 204.474921 364.283937 364.283937 0 0 1-62.268952 204.474921 368.428698 368.428698 0 0 1-98.580318 98.872889c-19.504762 13.214476-40.342349 24.543492-61.943873 33.726984z" p-id="1932"/></symbol><symbol id="iconfont-selected">
    <!-- Generator: Sketch 47.1 (45422) - http://www.bohemiancoding.com/sketch -->
    <title>&#x591A;&#x9009;</title>
    <desc>Created with Sketch.</desc>
    <defs/>
    <g id="&#x6B63;&#x7A3F;" stroke="none" stroke-width="1" fill="none" fill-rule="evenodd">
        <g id="&#x591A;&#x9009;" fill="#3DA5FE">
            <path d="M14,27 C6.82029825,27 1,21.1797017 1,14 C1,6.82029825 6.82029825,1 14,1 C21.1797017,1 27,6.82029825 27,14 C27,21.1797017 21.1797017,27 14,27 Z M14,17 C15.6568542,17 17,15.6568542 17,14 C17,12.3431458 15.6568542,11 14,11 C12.3431458,11 11,12.3431458 11,14 C11,15.6568542 12.3431458,17 14,17 Z" id="Combined-Shape"/>
        </g>
    </g>
</symbol><symbol id="iconfont-service"><defs><style type="text/css"/></defs><path d="M846.778769 378.434783a364.633043 364.633043 0 0 0-684.299131 0A80.13913 80.13913 0 0 0 155.801377 367.749565a356.173913 356.173913 0 0 1 701.217392 0 49.864348 49.864348 0 0 0-10.24 10.685218z m73.015652-44.52174a423.846957 423.846957 0 0 0-830.775652 15.582609A79.248696 79.248696 0 0 0 22.23616 426.963478v157.606957a79.693913 79.693913 0 0 0 79.248696 79.693913 78.358261 78.358261 0 0 0 60.994782-29.384348 365.523478 365.523478 0 0 0 196.34087 206.58087 18.69913 18.69913 0 0 1 4.006956-6.233044c0-2.226087 2.671304-3.561739 4.452174-3.561739h3.561739a356.173913 356.173913 0 0 1-112.64-205.690435 96.612174 96.612174 0 0 1 72.570435-105.071304c68.563478-12.466087 136.681739-27.158261 205.690435-39.624348a119.318261 119.318261 0 0 0 91.714783-72.125217 190.553043 190.553043 0 0 0 13.356521-52.98087 8.013913 8.013913 0 0 1 6.233044-6.678261 8.45913 8.45913 0 0 1 8.904348 3.116522 495.972174 495.972174 0 0 1 89.043478 218.156522c8.45913 105.071304 4.006957 178.086957-76.132174 250.657391a5.342609 5.342609 0 0 0 0 4.452174 6.678261 6.678261 0 0 0 3.116522 5.342609h8.013913a366.413913 366.413913 0 0 0 172.29913-209.252174 83.255652 83.255652 0 0 0 50.754783 33.836521c-34.281739 154.935652-171.853913 251.547826-342.817392 267.130435a68.563478 68.563478 0 1 0 0 44.521739c197.676522-16.027826 356.173913-133.565217 389.12-316.549565A81.029565 81.029565 0 0 0 1001.714421 572.549565V413.161739A81.92 81.92 0 0 0 977.672682 356.173913a81.029565 81.029565 0 0 0-57.878261-23.596522z" fill="#3DA5FE" p-id="5134"/></symbol><symbol id="iconfont-un-selected">
    <!-- Generator: Sketch 47.1 (45422) - http://www.bohemiancoding.com/sketch -->
    <title>&#x672A;&#x9009;&#xFF08;&#x591A;&#x9009;&#xFF09;</title>
    <desc>Created with Sketch.</desc>
    <defs>
        <linearGradient x1="100%" y1="22.5142047%" x2="1.3930963%" y2="22.5142045%" id="linearGradient-1">
            <stop stop-color="#3DA5FE" offset="0%"/>
            <stop stop-color="#0BC2E6" offset="100%"/>
        </linearGradient>
    </defs>
    <g id="&#x6B63;&#x7A3F;" stroke="none" stroke-width="1" fill="none" fill-rule="evenodd">
        <g id="&#x672A;&#x9009;&#xFF08;&#x591A;&#x9009;&#xFF09;" fill="#E5E7EA">
            <g id="&#x52FE;&#x9009;" transform="translate(1.000000, 1.000000)">
                <circle id="Oval-234" cx="13" cy="13" r="13"/>
            </g>
        </g>
    </g>
</symbol><symbol id="iconfont-warm"><defs><style type="text/css"/></defs><path d="M512 114.674763c53.661154 0 105.690134 10.498098 154.641009 31.202653 47.307446 20.009729 89.804329 48.665373 126.309754 85.170798 36.506449 36.506449 65.162092 79.003332 85.170798 126.309754 20.704554 48.951899 31.202653 100.979856 31.202653 154.641009s-10.498098 105.690134-31.202653 154.641009c-20.009729 47.306422-48.665373 89.804329-85.170798 126.309754-36.506449 36.506449-79.003332 65.162092-126.309754 85.170798-48.951899 20.704554-100.979856 31.202653-154.641009 31.202653s-105.690134-10.498098-154.641009-31.202653c-47.307446-20.009729-89.804329-48.665373-126.309754-85.170798-36.506449-36.506449-65.162092-79.003332-85.170798-126.309754-20.704554-48.951899-31.202653-100.979856-31.202653-154.641009s10.498098-105.690134 31.202653-154.641009c20.009729-47.307446 48.665373-89.804329 85.170798-126.309754 36.506449-36.506449 79.003332-65.162092 126.309754-85.170798C406.309866 125.172861 458.338846 114.674763 512 114.674763M512 63.509453c-247.694335 0-448.490547 200.796212-448.490547 448.490547s200.796212 448.490547 448.490547 448.490547 448.490547-200.796212 448.490547-448.490547S759.694335 63.509453 512 63.509453L512 63.509453z" p-id="2181"/><path d="M581.778226 246.458181l-17.907858 341.680916c-0.481977 15.758915-5.978155 28.89919-16.477276 39.397289-10.509355 10.510378-23.280216 15.758915-38.321794 15.758915-15.041578 0-27.700899-5.0142-37.963637-15.042601-10.275018-10.028401-15.882736-23.391756-16.833387-40.113603l-18.624173-341.680916c-0.961908-18.143219 6.088672-34.853809 21.131273-50.142004 15.042601-15.277962 32.346709-22.922059 51.93279-22.922059 19.574824 0 36.889165 7.521301 51.93279 22.563902C575.688531 211.000622 582.729901 227.834009 581.778226 246.458181zM508.714164 709.912535c19.092847 0 35.570123 6.804986 49.424666 20.414959 13.846356 13.609972 20.774139 29.961382 20.774139 49.067532 0 19.09387-6.927783 35.691897-20.774139 49.782823-13.854543 14.080693-30.331819 21.131273-49.424666 21.131273-19.104103 0-35.45756-6.928806-49.067532-20.773116-13.609972-13.856589-20.414959-30.443359-20.414959-49.783847 0-19.339464 6.804986-35.815717 20.414959-49.425689C473.256604 716.718545 489.609037 709.912535 508.714164 709.912535z" p-id="2182"/></symbol><symbol id="iconfont-zoomin"><defs><style type="text/css"/></defs><path d="M884.363636 18.618182H139.636364A121.483636 121.483636 0 0 0 18.618182 139.636364v744.727272A121.483636 121.483636 0 0 0 139.636364 1005.381818h744.727272a121.483636 121.483636 0 0 0 121.018182-121.018182V139.636364A121.483636 121.483636 0 0 0 884.363636 18.618182zM949.527273 884.363636a65.163636 65.163636 0 0 1-65.163637 65.163637H139.636364A65.163636 65.163636 0 0 1 74.472727 884.363636V139.636364A65.163636 65.163636 0 0 1 139.636364 74.472727h744.727272A65.163636 65.163636 0 0 1 949.527273 139.636364z" p-id="10297"/><path d="M872.727273 402.618182H660.945455l186.181818-186.181818a27.461818 27.461818 0 0 0-39.098182-39.098182l-186.181818 186.181818V151.272727a27.927273 27.927273 0 0 0-55.854546 0v279.272728a27.461818 27.461818 0 0 0 0 10.705454 26.065455 26.065455 0 0 0 14.894546 14.894546 27.461818 27.461818 0 0 0 10.705454 0h279.272728a27.927273 27.927273 0 0 0 0-55.854546zM441.250909 567.854545a27.461818 27.461818 0 0 0-10.705454 0h-279.272728a27.927273 27.927273 0 0 0 0 55.854546H363.054545l-186.181818 186.181818a27.461818 27.461818 0 1 0 39.098182 39.098182l186.181818-186.181818v211.781818a27.927273 27.927273 0 0 0 55.854546 0v-279.272727a27.461818 27.461818 0 0 0 0-10.705455 26.065455 26.065455 0 0 0-16.756364-16.756364z" p-id="10298"/></symbol><symbol id="iconfont-zoomout"><defs><style type="text/css"/></defs><path d="M884.363636 18.618182H139.636364A121.483636 121.483636 0 0 0 18.618182 139.636364v744.727272A121.483636 121.483636 0 0 0 139.636364 1005.381818h744.727272a121.483636 121.483636 0 0 0 121.018182-121.018182V139.636364A121.483636 121.483636 0 0 0 884.363636 18.618182zM949.527273 884.363636a65.163636 65.163636 0 0 1-65.163637 65.163637H139.636364A65.163636 65.163636 0 0 1 74.472727 884.363636V139.636364A65.163636 65.163636 0 0 1 139.636364 74.472727h744.727272A65.163636 65.163636 0 0 1 949.527273 139.636364z" p-id="10416"/><path d="M860.16 148.945455a27.461818 27.461818 0 0 0-10.705455-2.327273h-279.272727a27.927273 27.927273 0 0 0 0 55.854545h211.781818l-186.181818 186.181818a27.461818 27.461818 0 1 0 39.098182 39.098182l186.181818-186.181818v212.247273a27.927273 27.927273 0 0 0 55.854546 0v-279.272727a27.461818 27.461818 0 0 0-2.327273-10.705455 26.065455 26.065455 0 0 0-14.429091-14.894545zM453.818182 821.527273H242.036364l186.181818-186.181818a27.461818 27.461818 0 0 0-39.098182-39.098182l-186.181818 186.181818v-212.247273a27.927273 27.927273 0 1 0-55.854546 0v279.272727a27.461818 27.461818 0 0 0 2.327273 10.705455 26.065455 26.065455 0 0 0 14.894546 14.894545 27.461818 27.461818 0 0 0 10.705454 2.327273h279.272727a27.927273 27.927273 0 1 0 0-55.854545z" p-id="10417"/></symbol></svg>